<?xml version="1.0" standalone="yes"?>
<svg xmlns="http://www.w3.org/2000/svg" width="450" height="450">
<path style="fill:#fefefe; stroke:none;" d="M0 0L0 450L450 450L450 0L0 0z"/>
<path style="fill:#17252a; stroke:none;" d="M217 64C208.115 62.5761 205.666 68.9703 200 74C199.68 82.9126 197.711 91.9992 197 101C168.05 102.243 140.562 117.498 127.27 144C118.455 161.576 115.616 182.039 111.116 201C109.353 208.427 105.375 215.469 104.302 223C103.629 227.721 105.219 232.283 104.826 237C104.334 242.909 102.709 250.081 104.318 255.941C105.921 261.78 112.692 259 116.91 260.742C121.14 262.49 122.751 266.98 124 271C117.393 270.945 109.25 270.44 104.133 265.725C95.9389 258.177 97.888 242.894 98.8302 233C99.0821 230.355 98.7564 227.619 99.2284 225C99.9592 220.945 103.282 218.099 103.849 214C104.586 208.672 102.951 202.268 102.08 197C99.8416 183.458 96.1045 170.426 90.2191 158C87.7014 152.684 84.5673 145.18 79.6991 141.604C76.6082 139.334 70.1194 140.001 70.9306 145.044C71.4447 148.241 74.1628 151.22 75.6883 154C78.4896 159.104 80.7535 164.502 82.6559 170C87.6507 184.436 88.1159 198.168 90.1435 213C90.5272 215.807 92.2175 218.202 92.5316 221C94.3658 237.337 86.8623 254.376 95.8002 269.96C101.679 280.209 120.79 278.137 131 277.17C140.592 276.261 147.876 279.487 148 290L145 290C145 303.865 143 317.079 143 331C143 335.089 144.52 343.092 141.397 346.272C138.507 349.215 131.847 349.764 128 350.86C114.475 354.709 91.5156 359.172 90 376C76.4681 372.327 73.9405 393.622 87 393.622C100.253 393.622 92.4929 377.456 99.1088 371.329C103.87 366.92 110.896 364.893 117 363.141C126.387 360.447 136.195 357.421 146 357C147.216 366.621 146.996 375.362 147 385C147.001 388.079 146.239 393.018 149.317 394.957C153.279 397.452 156.472 393.614 156.891 389.985C157.591 383.922 156.368 378.006 156.104 372C155.886 367.038 156.997 362.005 157 357C172.134 357.651 194.836 362.095 204.915 373.989C209.858 379.823 204.126 388.42 212.044 392.539C216.409 394.81 221.496 393.056 224.016 388.946C225.159 387.082 225.345 384.354 227.433 383.198C230.767 381.35 239.949 384.662 239.573 377.942C239.246 372.095 231.736 366.692 228.699 362C223.428 353.857 225.026 346.775 222.683 338.104C221.971 335.471 219.386 334.257 218.503 331.791C217.579 329.21 219.107 326.375 220 324L232 327C236.545 318.467 238.695 308.895 242.424 300C246.371 290.587 251.712 281.655 255 272C258.605 284.196 256 300.289 256 313L256 398L344 398L344 206L356 206L356 199L344 199C351.741 182.427 359.641 165.681 367.858 149C371.753 141.093 377.63 132.783 379 124C372.352 125.082 370.47 132.566 367.753 138L350.753 172C348.05 177.406 344.156 182.781 345 189C341.08 189 334.673 190.201 331.51 187.397C329.188 185.338 328.729 181.7 327.481 179.001C325.089 173.824 319.896 168.297 314 167.384C305.771 166.111 296.429 172.344 288 172.791C276.546 173.398 265.285 169.299 254 168.171C247.902 167.561 241.284 168.787 236.214 164.431C232.592 161.32 231.479 156.329 229.997 152C226.887 142.915 224.001 135.761 224 126C225.65 126.938 227.241 127.867 229.025 128.542C239.77 132.609 238.812 122.69 243.302 116.558C244.947 114.313 247.458 113.657 250 113C249.759 107.005 250.425 102.774 252 97C250.521 96.0143 250.797 96 249 96C250.212 90.9081 250.212 86.0919 249 81L254 83C252.739 80.0036 251.233 77.2575 251 74L247 72C248.036 70.8137 248.339 70.3964 249 69C246.492 68.8351 245.311 69.025 243 70L244 66C238.015 62.8623 231.7 61.9978 225 62C221.896 62.001 219.101 61.5959 217 64z"/>
<path style="fill:#fefefe; stroke:none;" d="M251 79L252 80L251 79M248.333 98.6667C248.278 98.7221 248.222 99.7779 248.667 99.3333C248.722 99.2777 248.778 98.2222 248.333 98.6667M222 136C223.327 132.837 223 129.414 223 126C218.463 128.573 220.324 131.852 222 136M199.638 173.072C196.912 174.745 195.967 179.292 194.68 182C192.556 186.467 189.466 190.451 187.529 195C185.881 198.868 185.756 203.191 183.95 207C182.233 210.622 177.095 214.634 177.97 218.985C178.339 220.821 179.717 222.219 180.9 223.571C187.714 231.354 194.789 227.72 204 227.09C207.428 226.855 212.574 228.019 215.567 225.972C217.922 224.362 218.444 220.624 218.671 218C219.367 209.971 214.042 202.806 213.188 195C212.73 190.809 215.248 185.862 213.223 182C211.446 178.612 204.12 170.32 199.638 173.072M216 185C213.341 196.169 219.036 203.457 220.671 214C221.356 218.42 219.884 222.715 219 227C231.414 227 243.642 228.966 256 229L256 206L250 206C250.132 201.56 252.159 198.236 253 194C245.198 194.005 234.271 197.457 227 193.821C223.213 191.927 220.379 188.375 218 185L216 185M315 188C317.89 189.213 320.874 188.998 324 189C321.07 186.866 318.495 187.57 315 188M263 198C269.194 200.599 278.314 199 285 199L332 199L332 197L287 197C279.278 197 270.435 195.802 263 198M261 206C261 214.19 259.51 224.003 261.303 232C262.374 236.777 266.041 239.833 266.096 245C266.182 253.002 261.246 259.226 261.015 267C259.77 308.917 261 351.062 261 393L338 393L338 206L261 206M193 357L192 353C190.203 353 190.479 353.014 189 354C186.911 349.514 179.831 344.68 180.26 339.424C180.451 337.093 182.417 334.851 183.672 332.996C187.983 326.627 193.818 321.885 198.671 316C203.846 309.725 205.864 302.139 209.373 295C212.327 288.992 216.131 283.489 218 277L176 277C171.459 277 163.6 275.475 159.88 278.564C154.18 283.299 157.177 288.127 157.871 294.039C159.271 305.964 160 317.932 160 330C160 334.145 158.357 342.839 161.028 346.272C163.019 348.832 168.08 349.113 171 349.884C178.467 351.857 185.668 354.61 193 357z"/>
</svg>
