<?xml version="1.0" encoding="UTF-8"?>
<svg xmlns="http://www.w3.org/2000/svg" xmlns:xlink="http://www.w3.org/1999/xlink" width="33pt" height="49pt" viewBox="0 0 33 49" version="1.1">
<g id="surface1">
<rect x="0" y="0" width="33" height="49" style="fill:rgb(99.607843%,98.431373%,98.431373%);fill-opacity:1;stroke:none;"/>
<path style=" stroke:none;fill-rule:nonzero;fill:rgb(23,37,42);fill-opacity:1;" d="M 8.671875 0.4375 C 8.582031 1.511719 8.234375 2.609375 8 3.660156 C 7.535156 5.75 7.074219 7.84375 6.636719 9.941406 L 8.140625 9.941406 C 8.242188 9.148438 8.515625 8.382812 8.582031 7.585938 L 10.261719 7.585938 C 10.328125 8.382812 10.601562 9.148438 10.707031 9.941406 C 11.753906 9.941406 13.542969 10.265625 14.402344 9.542969 C 15.121094 8.941406 14.953125 7.796875 14.953125 6.976562 L 14.953125 0.4375 L 13.535156 0.4375 L 13.535156 6.714844 C 13.535156 7.375 13.703125 8.421875 12.914062 8.726562 C 12.691406 8.816406 12.445312 8.804688 12.210938 8.804688 L 12.210938 9.765625 C 11.722656 8.351562 11.53125 6.777344 11.21875 5.320312 C 10.867188 3.703125 10.390625 2.074219 10.175781 0.4375 L 8.671875 0.4375 M 15.660156 9.941406 C 16.007812 9.941406 16.722656 10.074219 17.011719 9.851562 C 17.585938 9.398438 17.070312 7.960938 17.804688 7.636719 C 18.042969 7.53125 18.410156 7.574219 18.667969 7.585938 C 19.746094 7.632812 19.222656 9.207031 19.742188 9.800781 C 19.992188 10.085938 20.792969 9.941406 21.144531 9.941406 C 21.066406 8.976562 20.773438 8.003906 20.5625 7.0625 C 20.21875 5.523438 19.921875 3.976562 19.5625 2.441406 C 19.445312 1.933594 19.4375 0.980469 19.09375 0.574219 C 18.898438 0.34375 18.160156 0.382812 17.890625 0.464844 C 17.628906 0.542969 17.601562 0.820312 17.546875 1.046875 C 17.417969 1.597656 17.300781 2.152344 17.183594 2.703125 C 16.867188 4.15625 16.566406 5.613281 16.242188 7.0625 C 16.03125 8.003906 15.738281 8.976562 15.660156 9.941406 M 21.234375 0.4375 C 21.574219 1.464844 21.976562 2.476562 22.367188 3.488281 C 22.542969 3.949219 22.890625 4.558594 22.878906 5.058594 C 22.871094 5.457031 22.628906 5.902344 22.5 6.277344 C 22.109375 7.433594 21.429688 8.726562 21.320312 9.941406 C 21.679688 9.941406 22.375 10.070312 22.675781 9.851562 C 22.945312 9.652344 23.019531 9.105469 23.121094 8.804688 C 23.417969 7.929688 23.839844 7.015625 23.976562 6.101562 C 24.578125 7.226562 25.011719 8.703125 25.304688 9.941406 L 26.808594 9.941406 C 26.488281 8.792969 26.039062 7.667969 25.65625 6.539062 C 25.496094 6.066406 25.175781 5.476562 25.199219 4.96875 C 25.222656 4.476562 25.535156 3.945312 25.707031 3.488281 C 26.085938 2.492188 26.5625 1.472656 26.808594 0.4375 L 25.304688 0.4375 C 25.015625 1.660156 24.351562 2.785156 24.0625 4.011719 C 23.710938 3.222656 23.4375 2.382812 23.148438 1.570312 C 23.042969 1.273438 22.941406 0.722656 22.675781 0.527344 C 22.359375 0.292969 21.609375 0.4375 21.234375 0.4375 Z M 21.234375 0.4375 "/>
<path style=" stroke:none;fill-rule:nonzero;fill:rgb(99.607843%,98.431373%,98.431373%);fill-opacity:1;" d="M 9.378906 2.878906 C 9.324219 4.078125 8.898438 5.25 8.847656 6.453125 L 9.996094 6.453125 C 9.980469 5.722656 9.800781 4.988281 9.679688 4.273438 C 9.601562 3.816406 9.582031 3.296875 9.378906 2.878906 M 18.3125 3.050781 C 18.265625 4.191406 17.929688 5.320312 17.78125 6.453125 L 19.019531 6.453125 C 18.878906 5.699219 18.757812 4.941406 18.632812 4.183594 C 18.566406 3.800781 18.558594 3.363281 18.3125 3.050781 Z M 18.3125 3.050781 "/>
<path style=" stroke:none;fill-rule:nonzero;fill:rgb(23,37,42);fill-opacity:1;" d="M 0.53125 12.902344 C 0.53125 13.953125 0.679688 15 0.78125 16.042969 C 0.945312 17.726562 1.058594 19.414062 1.222656 21.101562 C 1.734375 26.355469 2.070312 31.625 2.582031 36.878906 C 2.742188 38.566406 2.859375 40.253906 3.023438 41.9375 C 3.113281 42.886719 3.265625 43.859375 3.273438 44.816406 C 4.46875 45.085938 5.640625 45.5 6.8125 45.859375 C 8.664062 46.425781 10.53125 46.953125 12.386719 47.519531 C 13.328125 47.808594 14.269531 48.109375 15.21875 48.378906 C 15.644531 48.5 16.097656 48.703125 16.542969 48.714844 C 17.308594 48.734375 18.203125 48.289062 18.933594 48.078125 C 20.675781 47.574219 22.40625 47.035156 24.152344 46.546875 C 25.570312 46.148438 26.992188 45.742188 28.398438 45.308594 C 28.832031 45.175781 29.6875 45.09375 29.996094 44.75 C 30.183594 44.542969 30.164062 44.199219 30.167969 43.941406 C 30.179688 43.453125 30.226562 42.949219 30.273438 42.460938 C 30.480469 40.289062 30.691406 38.101562 30.792969 35.921875 C 30.972656 31.964844 31.476562 28.015625 31.753906 24.0625 C 32.011719 20.355469 32.171875 16.589844 32.644531 12.902344 Z M 0.53125 12.902344 "/>
<path style=" stroke:none;fill-rule:nonzero;fill:rgb(23,37,42);fill-opacity:1;" d="M 15.128906 19.964844 C 15.410156 20.082031 15.710938 20.054688 16.011719 20.054688 C 15.734375 19.9375 15.429688 19.964844 15.128906 19.964844 Z M 15.128906 19.964844 "/>
<path style=" stroke:none;fill-rule:nonzero;fill:rgb(99.607843%,98.431373%,98.431373%);fill-opacity:1;" d="M 14.066406 31.824219 C 13.671875 31.25 13.890625 30.152344 13.890625 29.46875 L 13.890625 25.371094 C 13.890625 24.695312 13.796875 23.945312 13.917969 23.28125 C 14.035156 22.648438 14.597656 22.160156 15.21875 22.019531 C 16.242188 21.785156 18.085938 21.726562 18.746094 22.671875 C 19.066406 23.132812 18.835938 24.144531 19.378906 24.359375 C 19.882812 24.558594 20.695312 24.417969 21.234375 24.414062 C 21.445312 24.410156 21.722656 24.4375 21.886719 24.273438 C 22.132812 24.03125 22.046875 23.414062 22.015625 23.105469 C 21.671875 19.980469 17.984375 19.945312 15.570312 20.050781 C 14.449219 20.097656 13.175781 20.132812 12.300781 20.933594 C 11.273438 21.871094 11.234375 23.21875 11.234375 24.5 L 11.234375 29.207031 C 11.234375 29.871094 11.390625 30.742188 11.207031 31.382812 C 11.128906 31.652344 10.925781 31.675781 10.703125 31.53125 C 10.167969 31.171875 9.800781 30.453125 9.113281 30.972656 C 8.984375 31.066406 8.871094 31.1875 8.761719 31.300781 C 8.621094 31.441406 8.429688 31.613281 8.40625 31.824219 C 8.382812 32.101562 8.671875 32.34375 8.847656 32.519531 C 9.3125 32.992188 9.792969 33.453125 10.261719 33.917969 L 11.765625 35.398438 C 11.953125 35.582031 12.191406 35.894531 12.472656 35.929688 C 12.871094 35.976562 13.292969 35.378906 13.535156 35.136719 L 15.660156 33.042969 C 15.957031 32.753906 16.472656 32.398438 16.617188 32 C 16.796875 31.5 15.949219 30.785156 15.484375 30.804688 C 14.9375 30.832031 14.375 31.425781 14.066406 31.824219 Z M 14.066406 31.824219 "/>
<path style=" stroke:none;fill-rule:nonzero;fill:rgb(23,37,42);fill-opacity:1;" d="M 17.429688 19.964844 C 17.636719 20.050781 17.824219 20.050781 18.046875 20.054688 C 17.84375 19.96875 17.652344 19.96875 17.429688 19.964844 M 14.15625 20.054688 C 14.289062 20.113281 14.359375 20.125 14.507812 20.140625 C 14.375 20.082031 14.304688 20.070312 14.15625 20.054688 M 18.460938 20.082031 C 18.421875 20.121094 18.515625 20.117188 18.519531 20.113281 C 18.558594 20.074219 18.464844 20.078125 18.460938 20.082031 M 13.800781 20.140625 C 13.910156 20.199219 13.9375 20.207031 14.066406 20.226562 C 13.957031 20.167969 13.929688 20.164062 13.800781 20.140625 M 18.84375 20.140625 C 18.953125 20.199219 18.980469 20.207031 19.109375 20.226562 C 19 20.167969 18.972656 20.164062 18.84375 20.140625 M 13.507812 20.257812 C 13.46875 20.296875 13.5625 20.289062 13.566406 20.285156 C 13.605469 20.246094 13.511719 20.253906 13.507812 20.257812 M 19.347656 20.257812 C 19.304688 20.296875 19.398438 20.289062 19.40625 20.285156 C 19.445312 20.246094 19.351562 20.253906 19.347656 20.257812 M 13.242188 20.34375 C 13.203125 20.382812 13.296875 20.378906 13.300781 20.375 C 13.339844 20.335938 13.246094 20.339844 13.242188 20.34375 M 19.550781 20.316406 L 19.640625 20.402344 L 19.550781 20.316406 M 13.003906 20.402344 L 13.09375 20.488281 L 13.003906 20.402344 M 19.816406 20.402344 L 19.90625 20.488281 L 19.816406 20.402344 M 12.828125 20.488281 L 12.917969 20.578125 L 12.828125 20.488281 M 19.996094 20.488281 L 20.082031 20.578125 L 19.996094 20.488281 M 12.652344 20.578125 L 12.738281 20.664062 L 12.652344 20.578125 M 12.386719 20.75 L 12.472656 20.839844 L 12.386719 20.75 M 20.527344 20.75 L 20.613281 20.839844 L 20.527344 20.75 M 12.296875 20.839844 L 12.386719 20.925781 L 12.296875 20.839844 M 12.210938 20.925781 L 12.296875 21.011719 L 12.210938 20.925781 M 20.789062 20.925781 L 20.878906 21.011719 L 20.789062 20.925781 M 12.121094 21.011719 L 12.210938 21.101562 L 12.121094 21.011719 M 12.03125 21.101562 L 12.121094 21.1875 L 12.03125 21.101562 M 11.945312 21.1875 L 12.03125 21.273438 L 11.945312 21.1875 M 11.855469 21.273438 L 11.945312 21.359375 L 11.855469 21.273438 M 11.765625 21.449219 L 11.855469 21.535156 L 11.765625 21.449219 M 21.320312 21.449219 L 21.410156 21.535156 L 21.320312 21.449219 M 11.679688 21.535156 L 11.765625 21.621094 L 11.679688 21.535156 M 21.410156 21.535156 L 21.5 21.621094 L 21.410156 21.535156 M 11.589844 21.710938 L 11.679688 21.796875 L 11.589844 21.710938 M 21.585938 21.796875 L 21.675781 21.882812 L 21.585938 21.796875 M 11.53125 21.941406 C 11.527344 21.949219 11.519531 22.039062 11.558594 22 C 11.566406 21.996094 11.570312 21.902344 11.53125 21.941406 M 16.367188 21.882812 C 16.523438 21.953125 16.636719 21.964844 16.808594 21.972656 C 16.652344 21.902344 16.542969 21.890625 16.367188 21.882812 M 15.128906 21.972656 C 15.261719 22.03125 15.332031 22.042969 15.484375 22.058594 C 15.347656 22 15.277344 21.988281 15.128906 21.972656 M 17.515625 21.972656 C 17.652344 22.03125 17.722656 22.042969 17.871094 22.058594 C 17.738281 22 17.667969 21.988281 17.515625 21.972656 M 21.675781 21.972656 L 21.765625 22.058594 L 21.675781 21.972656 M 14.863281 22.058594 L 14.953125 22.144531 L 14.863281 22.058594 M 18.046875 22.058594 L 18.136719 22.144531 L 18.046875 22.058594 M 11.441406 22.203125 C 11.4375 22.207031 11.433594 22.300781 11.472656 22.261719 C 11.476562 22.257812 11.480469 22.164062 11.441406 22.203125 M 14.6875 22.144531 L 14.773438 22.234375 L 14.6875 22.144531 M 18.226562 22.144531 L 18.3125 22.234375 L 18.226562 22.144531 M 21.792969 22.203125 C 21.789062 22.207031 21.785156 22.300781 21.824219 22.261719 C 21.828125 22.257812 21.832031 22.164062 21.792969 22.203125 M 14.507812 22.234375 L 14.597656 22.320312 L 14.507812 22.234375 M 14.421875 22.320312 L 14.507812 22.40625 L 14.421875 22.320312 M 18.492188 22.320312 L 18.578125 22.40625 L 18.492188 22.320312 M 11.355469 22.464844 C 11.347656 22.46875 11.34375 22.5625 11.382812 22.523438 C 11.386719 22.519531 11.394531 22.425781 11.355469 22.464844 M 18.578125 22.40625 L 18.667969 22.496094 L 18.578125 22.40625 M 21.882812 22.464844 C 21.878906 22.46875 21.871094 22.5625 21.910156 22.523438 C 21.917969 22.519531 21.921875 22.425781 21.882812 22.464844 M 14.15625 22.582031 L 14.242188 22.667969 L 14.15625 22.582031 M 14.066406 22.667969 L 14.15625 22.757812 L 14.066406 22.667969 M 18.757812 22.667969 L 18.84375 22.757812 L 18.757812 22.667969 M 21.96875 22.8125 C 21.964844 22.820312 21.960938 22.910156 22 22.871094 C 22.003906 22.867188 22.011719 22.777344 21.96875 22.8125 M 11.234375 22.84375 L 11.234375 23.191406 C 11.296875 23.039062 11.296875 22.996094 11.234375 22.84375 M 13.980469 22.84375 L 14.066406 22.929688 L 13.980469 22.84375 M 18.84375 22.84375 L 18.933594 22.929688 L 18.84375 22.84375 M 18.960938 23.074219 C 18.957031 23.082031 18.953125 23.171875 18.992188 23.132812 C 18.996094 23.128906 19 23.039062 18.960938 23.074219 M 13.890625 23.105469 L 13.980469 23.191406 L 13.890625 23.105469 M 22.03125 23.28125 L 22.03125 24.0625 C 22.140625 23.804688 22.140625 23.539062 22.03125 23.28125 M 19.050781 23.425781 C 19.046875 23.429688 19.042969 23.523438 19.082031 23.484375 C 19.085938 23.476562 19.089844 23.386719 19.050781 23.425781 M 19.019531 24.152344 L 19.109375 24.238281 L 19.019531 24.152344 M 19.109375 24.238281 L 19.199219 24.324219 L 19.109375 24.238281 M 19.640625 24.414062 C 19.75 24.472656 19.777344 24.476562 19.90625 24.5 C 19.796875 24.441406 19.769531 24.433594 19.640625 24.414062 M 20.4375 25.546875 C 20.570312 25.605469 20.640625 25.617188 20.789062 25.632812 C 20.65625 25.574219 20.585938 25.5625 20.4375 25.546875 Z M 20.4375 25.546875 "/>
<path style=" stroke:none;fill-rule:nonzero;fill:rgb(99.607843%,98.431373%,98.431373%);fill-opacity:1;" d="M 20.347656 25.722656 C 19.972656 25.902344 19.667969 26.304688 19.375 26.59375 C 18.730469 27.226562 18.105469 27.894531 17.429688 28.496094 C 17.125 28.765625 16.511719 29.125 16.449219 29.558594 C 16.390625 29.953125 16.964844 30.449219 17.253906 30.652344 C 17.804688 31.046875 18.128906 30.644531 18.503906 30.257812 C 18.660156 30.097656 18.984375 29.753906 19.195312 30.027344 C 19.328125 30.199219 19.285156 30.488281 19.285156 30.691406 L 19.285156 36.445312 C 19.285156 37.15625 19.386719 37.976562 19.027344 38.625 C 18.441406 39.679688 17.128906 39.496094 16.101562 39.496094 C 15.519531 39.496094 14.957031 39.507812 14.527344 39.050781 C 14.214844 38.71875 14.152344 38.273438 14.09375 37.839844 C 14.058594 37.605469 14.074219 37.308594 13.851562 37.15625 C 13.414062 36.863281 12.367188 37.050781 11.855469 37.054688 C 11.640625 37.058594 11.367188 37.03125 11.199219 37.195312 C 10.976562 37.414062 11.050781 37.90625 11.0625 38.1875 C 11.109375 39.265625 11.617188 40.261719 12.5625 40.824219 C 14.050781 41.714844 16.121094 41.625 17.78125 41.507812 C 18.609375 41.453125 19.5 41.421875 20.261719 41.054688 C 21.261719 40.566406 21.632812 39.652344 21.800781 38.625 C 21.980469 37.523438 21.941406 36.421875 21.941406 35.3125 C 21.941406 34.417969 21.996094 33.5 21.933594 32.609375 C 21.882812 31.914062 21.628906 30.839844 21.90625 30.171875 C 21.988281 29.976562 22.164062 29.863281 22.367188 29.972656 C 22.726562 30.160156 22.886719 30.601562 23.269531 30.773438 C 23.78125 31.003906 24.761719 30.070312 24.722656 29.566406 C 24.695312 29.210938 24.0625 28.929688 23.835938 28.679688 C 23.085938 27.859375 22.285156 27.121094 21.5 26.332031 C 21.195312 26.023438 20.855469 25.484375 20.347656 25.722656 Z M 20.347656 25.722656 "/>
<path style=" stroke:none;fill-rule:nonzero;fill:rgb(23,37,42);fill-opacity:1;" d="M 21.054688 25.894531 L 21.144531 25.980469 L 21.054688 25.894531 M 21.144531 25.980469 L 21.234375 26.070312 L 21.144531 25.980469 M 21.234375 26.070312 L 21.320312 26.15625 L 21.234375 26.070312 M 19.730469 26.15625 L 19.816406 26.242188 L 19.730469 26.15625 M 21.320312 26.15625 L 21.410156 26.242188 L 21.320312 26.15625 M 19.640625 26.242188 L 19.730469 26.332031 L 19.640625 26.242188 M 21.410156 26.242188 L 21.5 26.332031 L 21.410156 26.242188 M 19.550781 26.332031 L 19.640625 26.417969 L 19.550781 26.332031 M 21.5 26.332031 L 21.585938 26.417969 L 21.5 26.332031 M 19.464844 26.417969 L 19.550781 26.503906 L 19.464844 26.417969 M 21.585938 26.417969 L 21.675781 26.503906 L 21.585938 26.417969 M 19.375 26.503906 L 19.464844 26.59375 L 19.375 26.503906 M 21.675781 26.503906 L 21.765625 26.59375 L 21.675781 26.503906 M 19.285156 26.59375 L 19.375 26.679688 L 19.285156 26.59375 M 21.765625 26.59375 L 21.851562 26.679688 L 21.765625 26.59375 M 19.199219 26.679688 L 19.285156 26.765625 L 19.199219 26.679688 M 21.851562 26.679688 L 21.941406 26.765625 L 21.851562 26.679688 M 19.109375 26.765625 L 19.199219 26.855469 L 19.109375 26.765625 M 21.941406 26.765625 L 22.03125 26.855469 L 21.941406 26.765625 M 19.019531 26.855469 L 19.109375 26.941406 L 19.019531 26.855469 M 22.03125 26.855469 L 22.117188 26.941406 L 22.03125 26.855469 M 18.933594 26.941406 L 19.019531 27.027344 L 18.933594 26.941406 M 22.117188 26.941406 L 22.207031 27.027344 L 22.117188 26.941406 M 18.84375 27.027344 L 18.933594 27.117188 L 18.84375 27.027344 M 18.757812 27.117188 L 18.84375 27.203125 L 18.757812 27.117188 M 18.667969 27.203125 L 18.757812 27.289062 L 18.667969 27.203125 M 18.578125 27.289062 L 18.667969 27.378906 L 18.578125 27.289062 M 18.492188 27.378906 L 18.578125 27.464844 L 18.492188 27.378906 M 18.402344 27.464844 L 18.492188 27.550781 L 18.402344 27.464844 M 18.3125 27.550781 L 18.402344 27.640625 L 18.3125 27.550781 M 18.226562 27.640625 L 18.3125 27.726562 L 18.226562 27.640625 M 18.136719 27.726562 L 18.226562 27.8125 L 18.136719 27.726562 M 18.046875 27.8125 L 18.136719 27.898438 L 18.046875 27.8125 M 17.960938 27.898438 L 18.046875 27.988281 L 17.960938 27.898438 M 17.871094 27.988281 L 17.960938 28.074219 L 17.871094 27.988281 M 17.78125 28.074219 L 17.871094 28.160156 L 17.78125 28.074219 M 17.695312 28.160156 L 17.78125 28.25 L 17.695312 28.160156 M 23.355469 28.160156 L 23.445312 28.25 L 23.355469 28.160156 M 17.605469 28.25 L 17.695312 28.335938 L 17.605469 28.25 M 23.445312 28.25 L 23.535156 28.335938 L 23.445312 28.25 M 17.515625 28.335938 L 17.605469 28.421875 L 17.515625 28.335938 M 23.535156 28.335938 L 23.621094 28.421875 L 23.535156 28.335938 M 17.429688 28.421875 L 17.515625 28.511719 L 17.429688 28.421875 M 17.339844 28.511719 L 17.429688 28.597656 L 17.339844 28.511719 M 17.253906 28.597656 L 17.339844 28.683594 L 17.253906 28.597656 M 23.800781 28.683594 L 23.886719 28.773438 L 23.800781 28.683594 M 23.886719 28.773438 L 23.976562 28.859375 L 23.886719 28.773438 M 23.976562 28.859375 L 24.0625 28.945312 L 23.976562 28.859375 M 24.0625 28.945312 L 24.152344 29.035156 L 24.0625 28.945312 M 24.328125 29.121094 L 24.417969 29.207031 L 24.328125 29.121094 M 24.507812 29.207031 L 24.59375 29.296875 L 24.507812 29.207031 M 24.800781 29.527344 C 24.796875 29.53125 24.792969 29.625 24.832031 29.585938 C 24.835938 29.582031 24.839844 29.488281 24.800781 29.527344 M 11.148438 29.644531 L 11.148438 31.214844 C 11.320312 30.808594 11.320312 30.050781 11.148438 29.644531 M 16.367188 29.730469 L 16.457031 29.820312 L 16.367188 29.730469 M 24.683594 29.730469 L 24.773438 29.820312 L 24.683594 29.730469 M 16.457031 29.820312 L 16.542969 29.90625 L 16.457031 29.820312 M 18.84375 29.820312 L 18.933594 29.90625 L 18.84375 29.820312 M 22.03125 29.820312 L 22.117188 29.90625 L 22.03125 29.820312 M 22.292969 29.820312 L 22.382812 29.90625 L 22.292969 29.820312 M 16.542969 29.90625 L 16.632812 29.992188 L 16.542969 29.90625 M 18.757812 29.90625 L 18.84375 29.992188 L 18.757812 29.90625 M 22.382812 29.90625 L 22.472656 29.992188 L 22.382812 29.90625 M 18.667969 29.992188 L 18.757812 30.078125 L 18.667969 29.992188 M 21.851562 29.992188 L 21.851562 32.347656 C 22.078125 31.820312 22.078125 30.519531 21.851562 29.992188 M 22.472656 29.992188 L 22.558594 30.078125 L 22.472656 29.992188 M 24.507812 29.992188 L 24.59375 30.078125 L 24.507812 29.992188 M 18.578125 30.078125 L 18.667969 30.167969 L 18.578125 30.078125 M 24.417969 30.078125 L 24.507812 30.167969 L 24.417969 30.078125 M 18.492188 30.167969 L 18.578125 30.253906 L 18.492188 30.167969 M 24.328125 30.167969 L 24.417969 30.253906 L 24.328125 30.167969 M 16.808594 30.253906 L 16.898438 30.339844 L 16.808594 30.253906 M 18.402344 30.253906 L 18.492188 30.339844 L 18.402344 30.253906 M 24.242188 30.253906 L 24.328125 30.339844 L 24.242188 30.253906 M 16.898438 30.339844 L 16.988281 30.429688 L 16.898438 30.339844 M 18.3125 30.339844 L 18.402344 30.429688 L 18.3125 30.339844 M 24.152344 30.339844 L 24.242188 30.429688 L 24.152344 30.339844 M 16.988281 30.429688 L 17.074219 30.515625 L 16.988281 30.429688 M 24.0625 30.429688 L 24.152344 30.515625 L 24.0625 30.429688 M 17.074219 30.515625 L 17.164062 30.601562 L 17.074219 30.515625 M 17.164062 30.601562 L 17.253906 30.691406 L 17.164062 30.601562 M 18.136719 30.601562 L 18.226562 30.691406 L 18.136719 30.601562 M 9.378906 30.691406 L 9.464844 30.777344 L 9.378906 30.691406 M 9.644531 30.691406 L 9.730469 30.777344 L 9.644531 30.691406 M 17.253906 30.691406 L 17.339844 30.777344 L 17.253906 30.691406 M 18.046875 30.691406 L 18.136719 30.777344 L 18.046875 30.691406 M 9.820312 30.777344 L 9.910156 30.863281 L 9.820312 30.777344 M 15.21875 30.777344 L 15.304688 30.863281 L 15.21875 30.777344 M 15.746094 30.777344 L 15.835938 30.863281 L 15.746094 30.777344 M 17.429688 30.777344 L 17.515625 30.863281 L 17.429688 30.777344 M 9.113281 30.863281 L 9.199219 30.953125 L 9.113281 30.863281 M 15.039062 30.863281 L 15.128906 30.953125 L 15.039062 30.863281 M 15.925781 30.863281 L 16.011719 30.953125 L 15.925781 30.863281 M 17.605469 30.863281 C 17.714844 30.925781 17.742188 30.929688 17.871094 30.953125 C 17.761719 30.890625 17.734375 30.886719 17.605469 30.863281 M 23.355469 30.863281 C 23.46875 30.925781 23.492188 30.929688 23.621094 30.953125 C 23.511719 30.890625 23.484375 30.886719 23.355469 30.863281 M 9.023438 30.953125 L 9.113281 31.039062 L 9.023438 30.953125 M 16.011719 30.953125 L 16.101562 31.039062 L 16.011719 30.953125 M 8.9375 31.039062 L 9.023438 31.125 L 8.9375 31.039062 M 10.175781 31.039062 L 10.261719 31.125 L 10.175781 31.039062 M 14.773438 31.039062 L 14.863281 31.125 L 14.773438 31.039062 M 16.101562 31.039062 L 16.191406 31.125 L 16.101562 31.039062 M 8.847656 31.125 L 8.9375 31.214844 L 8.847656 31.125 M 10.261719 31.125 L 10.351562 31.214844 L 10.261719 31.125 M 14.6875 31.125 L 14.773438 31.214844 L 14.6875 31.125 M 16.191406 31.125 L 16.277344 31.214844 L 16.191406 31.125 M 8.757812 31.214844 L 8.847656 31.300781 L 8.757812 31.214844 M 10.351562 31.214844 L 10.441406 31.300781 L 10.351562 31.214844 M 14.597656 31.214844 L 14.6875 31.300781 L 14.597656 31.214844 M 16.277344 31.214844 L 16.367188 31.300781 L 16.277344 31.214844 M 8.671875 31.300781 L 8.757812 31.386719 L 8.671875 31.300781 M 10.441406 31.300781 L 10.527344 31.386719 L 10.441406 31.300781 M 14.507812 31.300781 L 14.597656 31.386719 L 14.507812 31.300781 M 8.582031 31.386719 L 8.671875 31.476562 L 8.582031 31.386719 M 10.527344 31.386719 L 10.617188 31.476562 L 10.527344 31.386719 M 14.421875 31.386719 L 14.507812 31.476562 L 14.421875 31.386719 M 8.492188 31.476562 L 8.582031 31.5625 L 8.492188 31.476562 M 10.617188 31.476562 L 10.707031 31.5625 L 10.617188 31.476562 M 16.457031 31.476562 L 16.542969 31.5625 L 16.457031 31.476562 M 8.40625 31.5625 L 8.492188 31.648438 L 8.40625 31.5625 M 11.148438 31.5625 L 11.234375 31.648438 L 11.148438 31.5625 M 13.800781 31.5625 L 13.890625 31.648438 L 13.800781 31.5625 M 16.542969 31.5625 L 16.632812 31.648438 L 16.542969 31.5625 M 8.316406 31.648438 L 8.40625 31.738281 L 8.316406 31.648438 M 11.058594 31.648438 L 11.148438 31.738281 L 11.058594 31.648438 M 13.980469 31.738281 L 14.066406 31.824219 L 13.980469 31.738281 M 8.316406 31.910156 L 8.40625 32 L 8.316406 31.910156 M 16.632812 32 L 16.722656 32.085938 L 16.632812 32 M 8.40625 32.085938 L 8.492188 32.171875 L 8.40625 32.085938 M 16.542969 32.085938 L 16.632812 32.171875 L 16.542969 32.085938 M 8.492188 32.171875 L 8.582031 32.261719 L 8.492188 32.171875 M 16.457031 32.171875 L 16.542969 32.261719 L 16.457031 32.171875 M 8.582031 32.261719 L 8.671875 32.347656 L 8.582031 32.261719 M 16.367188 32.261719 L 16.457031 32.347656 L 16.367188 32.261719 M 8.671875 32.347656 L 8.757812 32.433594 L 8.671875 32.347656 M 16.277344 32.347656 L 16.367188 32.433594 L 16.277344 32.347656 M 8.757812 32.433594 L 8.847656 32.519531 L 8.757812 32.433594 M 16.191406 32.433594 L 16.277344 32.519531 L 16.191406 32.433594 M 8.847656 32.519531 L 8.9375 32.609375 L 8.847656 32.519531 M 16.101562 32.519531 L 16.191406 32.609375 L 16.101562 32.519531 M 8.9375 32.609375 L 9.023438 32.695312 L 8.9375 32.609375 M 16.011719 32.609375 L 16.101562 32.695312 L 16.011719 32.609375 M 9.023438 32.695312 L 9.113281 32.78125 L 9.023438 32.695312 M 15.925781 32.695312 L 16.011719 32.78125 L 15.925781 32.695312 M 9.113281 32.78125 L 9.199219 32.871094 L 9.113281 32.78125 M 15.835938 32.78125 L 15.925781 32.871094 L 15.835938 32.78125 M 9.199219 32.871094 L 9.289062 32.957031 L 9.199219 32.871094 M 15.746094 32.871094 L 15.835938 32.957031 L 15.746094 32.871094 M 9.289062 32.957031 L 9.378906 33.042969 L 9.289062 32.957031 M 15.660156 32.957031 L 15.746094 33.042969 L 15.660156 32.957031 M 9.378906 33.042969 L 9.464844 33.132812 L 9.378906 33.042969 M 15.570312 33.042969 L 15.660156 33.132812 L 15.570312 33.042969 M 9.464844 33.132812 L 9.554688 33.21875 L 9.464844 33.132812 M 15.484375 33.132812 L 15.570312 33.21875 L 15.484375 33.132812 M 9.554688 33.21875 L 9.644531 33.304688 L 9.554688 33.21875 M 15.394531 33.21875 L 15.484375 33.304688 L 15.394531 33.21875 M 9.644531 33.304688 L 9.730469 33.394531 L 9.644531 33.304688 M 15.304688 33.304688 L 15.394531 33.394531 L 15.304688 33.304688 M 9.730469 33.394531 L 9.820312 33.480469 L 9.730469 33.394531 M 15.21875 33.394531 L 15.304688 33.480469 L 15.21875 33.394531 M 9.820312 33.480469 L 9.910156 33.566406 L 9.820312 33.480469 M 15.128906 33.480469 L 15.21875 33.566406 L 15.128906 33.480469 M 9.910156 33.566406 L 9.996094 33.65625 L 9.910156 33.566406 M 15.039062 33.566406 L 15.128906 33.65625 L 15.039062 33.566406 M 9.996094 33.65625 L 10.085938 33.742188 L 9.996094 33.65625 M 14.953125 33.65625 L 15.039062 33.742188 L 14.953125 33.65625 M 10.085938 33.742188 L 10.175781 33.828125 L 10.085938 33.742188 M 14.863281 33.742188 L 14.953125 33.828125 L 14.863281 33.742188 M 10.175781 33.828125 L 10.261719 33.917969 L 10.175781 33.828125 M 14.773438 33.828125 L 14.863281 33.917969 L 14.773438 33.828125 M 10.261719 33.917969 L 10.351562 34.003906 L 10.261719 33.917969 M 14.6875 33.917969 L 14.773438 34.003906 L 14.6875 33.917969 M 10.351562 34.003906 L 10.441406 34.089844 L 10.351562 34.003906 M 14.597656 34.003906 L 14.6875 34.089844 L 14.597656 34.003906 M 10.441406 34.089844 L 10.527344 34.179688 L 10.441406 34.089844 M 14.507812 34.089844 L 14.597656 34.179688 L 14.507812 34.089844 M 10.527344 34.179688 L 10.617188 34.265625 L 10.527344 34.179688 M 14.421875 34.179688 L 14.507812 34.265625 L 14.421875 34.179688 M 10.617188 34.265625 L 10.707031 34.351562 L 10.617188 34.265625 M 14.332031 34.265625 L 14.421875 34.351562 L 14.332031 34.265625 M 10.707031 34.351562 L 10.792969 34.441406 L 10.707031 34.351562 M 14.242188 34.351562 L 14.332031 34.441406 L 14.242188 34.351562 M 10.792969 34.441406 L 10.882812 34.527344 L 10.792969 34.441406 M 14.15625 34.441406 L 14.242188 34.527344 L 14.15625 34.441406 M 10.882812 34.527344 L 10.96875 34.613281 L 10.882812 34.527344 M 14.066406 34.527344 L 14.15625 34.613281 L 14.066406 34.527344 M 10.96875 34.613281 L 11.058594 34.699219 L 10.96875 34.613281 M 13.980469 34.613281 L 14.066406 34.699219 L 13.980469 34.613281 M 11.058594 34.699219 L 11.148438 34.789062 L 11.058594 34.699219 M 13.890625 34.699219 L 13.980469 34.789062 L 13.890625 34.699219 M 11.148438 34.789062 L 11.234375 34.875 L 11.148438 34.789062 M 13.800781 34.789062 L 13.890625 34.875 L 13.800781 34.789062 M 11.234375 34.875 L 11.324219 34.960938 L 11.234375 34.875 M 13.714844 34.875 L 13.800781 34.960938 L 13.714844 34.875 M 11.324219 34.960938 L 11.414062 35.050781 L 11.324219 34.960938 M 13.625 34.960938 L 13.714844 35.050781 L 13.625 34.960938 M 11.414062 35.050781 L 11.5 35.136719 L 11.414062 35.050781 M 13.535156 35.050781 L 13.625 35.136719 L 13.535156 35.050781 M 11.5 35.136719 L 11.589844 35.222656 L 11.5 35.136719 M 13.449219 35.136719 L 13.535156 35.222656 L 13.449219 35.136719 M 11.589844 35.222656 L 11.679688 35.3125 L 11.589844 35.222656 M 13.359375 35.222656 L 13.449219 35.3125 L 13.359375 35.222656 M 11.679688 35.3125 L 11.765625 35.398438 L 11.679688 35.3125 M 13.269531 35.3125 L 13.359375 35.398438 L 13.269531 35.3125 M 11.765625 35.398438 L 11.855469 35.484375 L 11.765625 35.398438 M 13.183594 35.398438 L 13.269531 35.484375 L 13.183594 35.398438 M 11.855469 35.484375 L 11.945312 35.574219 L 11.855469 35.484375 M 13.09375 35.484375 L 13.183594 35.574219 L 13.09375 35.484375 M 11.945312 35.574219 L 12.03125 35.660156 L 11.945312 35.574219 M 13.003906 35.574219 L 13.09375 35.660156 L 13.003906 35.574219 M 12.03125 35.660156 L 12.121094 35.746094 L 12.03125 35.660156 M 12.917969 35.660156 L 13.003906 35.746094 L 12.917969 35.660156 M 12.121094 35.746094 L 12.210938 35.835938 L 12.121094 35.746094 M 12.828125 35.746094 L 12.917969 35.835938 L 12.828125 35.746094 M 12.210938 35.835938 L 12.296875 35.921875 L 12.210938 35.835938 M 12.738281 35.835938 L 12.828125 35.921875 L 12.738281 35.835938 M 12.296875 35.921875 L 12.386719 36.007812 L 12.296875 35.921875 M 12.652344 35.921875 L 12.738281 36.007812 L 12.652344 35.921875 M 11.148438 37.054688 L 11.234375 37.140625 L 11.148438 37.054688 M 13.800781 37.054688 L 13.890625 37.140625 L 13.800781 37.054688 M 11.058594 37.140625 L 11.148438 37.230469 L 11.058594 37.140625 M 13.980469 37.230469 L 14.066406 37.316406 L 13.980469 37.230469 M 10.96875 37.316406 L 10.96875 38.449219 C 11.109375 38.121094 11.109375 37.648438 10.96875 37.316406 M 14.066406 37.578125 L 14.066406 38.015625 C 14.140625 37.835938 14.140625 37.753906 14.066406 37.578125 M 19.199219 37.664062 L 19.199219 38.015625 C 19.261719 37.859375 19.261719 37.820312 19.199219 37.664062 M 21.851562 37.925781 L 21.851562 38.363281 C 21.925781 38.1875 21.925781 38.105469 21.851562 37.925781 M 19.140625 38.332031 C 19.132812 38.339844 19.128906 38.429688 19.167969 38.390625 C 19.171875 38.386719 19.179688 38.296875 19.140625 38.332031 M 14.183594 38.421875 C 14.179688 38.425781 14.175781 38.519531 14.214844 38.480469 C 14.21875 38.472656 14.222656 38.382812 14.183594 38.421875 M 11.058594 38.539062 L 11.058594 38.886719 C 11.121094 38.734375 11.121094 38.691406 11.058594 38.539062 M 19.019531 38.539062 L 19.109375 38.625 L 19.019531 38.539062 M 21.765625 38.539062 L 21.765625 38.800781 C 21.824219 38.664062 21.824219 38.671875 21.765625 38.539062 M 14.242188 38.710938 L 14.332031 38.800781 L 14.242188 38.710938 M 18.933594 38.710938 L 19.019531 38.800781 L 18.933594 38.710938 M 14.332031 38.886719 L 14.421875 38.972656 L 14.332031 38.886719 M 11.175781 39.03125 C 11.171875 39.035156 11.167969 39.128906 11.207031 39.089844 C 11.210938 39.085938 11.214844 38.992188 11.175781 39.03125 M 18.757812 38.972656 L 18.84375 39.058594 L 18.757812 38.972656 M 21.703125 39.117188 C 21.699219 39.125 21.695312 39.214844 21.734375 39.175781 C 21.738281 39.171875 21.746094 39.078125 21.703125 39.117188 M 11.265625 39.292969 C 11.261719 39.296875 11.253906 39.390625 11.296875 39.351562 C 11.300781 39.347656 11.304688 39.253906 11.265625 39.292969 M 14.6875 39.234375 L 14.773438 39.320312 L 14.6875 39.234375 M 14.863281 39.320312 L 14.953125 39.410156 L 14.863281 39.320312 M 18.136719 39.320312 L 18.226562 39.410156 L 18.136719 39.320312 M 15.1875 39.4375 C 15.148438 39.476562 15.242188 39.472656 15.246094 39.46875 C 15.285156 39.429688 15.191406 39.433594 15.1875 39.4375 M 17.695312 39.410156 C 17.804688 39.46875 17.832031 39.472656 17.960938 39.496094 C 17.847656 39.4375 17.824219 39.429688 17.695312 39.410156 M 21.617188 39.46875 C 21.613281 39.472656 21.605469 39.5625 21.644531 39.527344 C 21.652344 39.519531 21.65625 39.429688 21.617188 39.46875 M 11.324219 39.496094 L 11.414062 39.582031 L 11.324219 39.496094 M 11.414062 39.671875 L 11.5 39.757812 L 11.414062 39.671875 M 21.5 39.671875 L 21.585938 39.757812 L 21.5 39.671875 M 21.410156 39.84375 L 21.5 39.933594 L 21.410156 39.84375 M 11.589844 39.933594 L 11.679688 40.019531 L 11.589844 39.933594 M 21.320312 40.019531 L 21.410156 40.105469 L 21.320312 40.019531 M 11.855469 40.28125 L 11.945312 40.367188 L 11.855469 40.28125 M 21.144531 40.28125 L 21.234375 40.367188 L 21.144531 40.28125 M 11.945312 40.367188 L 12.03125 40.457031 L 11.945312 40.367188 M 21.054688 40.367188 L 21.144531 40.457031 L 21.054688 40.367188 M 12.296875 40.628906 L 12.386719 40.71875 L 12.296875 40.628906 M 20.789062 40.628906 L 20.878906 40.71875 L 20.789062 40.628906 M 12.386719 40.71875 L 12.472656 40.804688 L 12.386719 40.71875 M 20.703125 40.71875 L 20.789062 40.804688 L 20.703125 40.71875 M 12.5625 40.804688 L 12.652344 40.890625 L 12.5625 40.804688 M 20.613281 40.804688 L 20.703125 40.890625 L 20.613281 40.804688 M 12.652344 40.890625 L 12.738281 40.980469 L 12.652344 40.890625 M 20.4375 40.890625 L 20.527344 40.980469 L 20.4375 40.890625 M 12.886719 41.007812 C 12.847656 41.046875 12.941406 41.042969 12.945312 41.035156 C 12.984375 40.996094 12.890625 41.003906 12.886719 41.007812 M 13.09375 41.066406 L 13.183594 41.152344 L 13.09375 41.066406 M 20.082031 41.066406 L 20.171875 41.152344 L 20.082031 41.066406 M 13.359375 41.152344 L 13.449219 41.238281 L 13.359375 41.152344 M 19.90625 41.152344 L 19.996094 41.238281 L 19.90625 41.152344 M 13.683594 41.269531 C 13.644531 41.308594 13.738281 41.304688 13.742188 41.296875 C 13.78125 41.257812 13.6875 41.265625 13.683594 41.269531 M 19.640625 41.238281 L 19.730469 41.328125 L 19.640625 41.238281 M 13.980469 41.328125 C 14.089844 41.386719 14.117188 41.394531 14.242188 41.414062 C 14.132812 41.355469 14.105469 41.347656 13.980469 41.328125 M 19.109375 41.328125 C 19.21875 41.386719 19.246094 41.394531 19.375 41.414062 C 19.265625 41.355469 19.238281 41.347656 19.109375 41.328125 M 14.421875 41.414062 C 14.554688 41.472656 14.625 41.488281 14.773438 41.5 C 14.640625 41.441406 14.570312 41.429688 14.421875 41.414062 M 18.492188 41.414062 C 18.601562 41.472656 18.628906 41.480469 18.757812 41.5 C 18.644531 41.441406 18.617188 41.4375 18.492188 41.414062 M 15.128906 41.5 C 15.285156 41.570312 15.398438 41.582031 15.570312 41.589844 C 15.414062 41.519531 15.300781 41.507812 15.128906 41.5 M 17.429688 41.5 C 17.636719 41.585938 17.824219 41.585938 18.046875 41.589844 C 17.84375 41.503906 17.652344 41.503906 17.429688 41.5 Z M 17.429688 41.5 "/>
</g>
</svg>
