<?xml version="1.0" encoding="UTF-8"?>
<svg xmlns="http://www.w3.org/2000/svg" xmlns:xlink="http://www.w3.org/1999/xlink" width="50pt" height="50pt" viewBox="0 0 50 50" version="1.1">
<g id="surface1">
<path style=" stroke:none;fill-rule:nonzero;fill:rgb(99.607843%,99.607843%,99.607843%);fill-opacity:1;" d="M 0 0 L 0 50 L 24.445312 50 C 19.871094 46.828125 14.613281 44.351562 9.777344 41.589844 C 7.960938 40.550781 4.914062 39.492188 3.679688 37.769531 C 2.960938 36.761719 3.109375 35.390625 3.109375 34.222656 L 3.109375 17.332031 C 3.109375 15.96875 2.800781 14.144531 3.433594 12.890625 C 4.421875 10.941406 7.316406 9.941406 9.109375 8.886719 C 12.4375 6.933594 15.757812 4.960938 19.109375 3.046875 C 20.796875 2.085938 22.429688 0.972656 24.222656 0.222656 C 23.398438 -0.121094 22.441406 0 21.554688 0 Z M 0 0 "/>
<path style=" stroke:none;fill-rule:nonzero;fill:rgb(23,37,42);fill-opacity:1;" d="M 24.222656 0.140625 C 22.421875 0.632812 20.714844 2 19.109375 2.921875 C 15.542969 4.972656 12.015625 7.09375 8.445312 9.144531 C 6.773438 10.105469 3.886719 11.109375 3.257812 13.109375 C 2.703125 14.871094 3.109375 17.277344 3.109375 19.109375 L 3.109375 31.777344 C 3.109375 33.542969 2.5625 36.480469 3.679688 37.976562 C 4.492188 39.058594 6.183594 39.65625 7.332031 40.316406 L 15.332031 44.890625 L 22 48.699219 C 23.089844 49.324219 24.238281 50.160156 25.554688 49.820312 C 27.441406 49.335938 29.214844 47.941406 30.890625 46.984375 C 34.375 44.984375 37.839844 42.9375 41.332031 40.953125 C 42.925781 40.046875 45.921875 38.996094 46.523438 37.109375 C 47.078125 35.355469 46.667969 32.941406 46.667969 31.109375 L 46.667969 14.222656 C 46.664062 13.476562 46.722656 12.671875 46.28125 12.023438 C 45.523438 10.921875 43.796875 10.296875 42.667969 9.648438 L 34.445312 4.921875 C 32.296875 3.695312 30.140625 2.476562 28 1.238281 C 26.851562 0.574219 25.613281 -0.234375 24.222656 0.140625 Z M 24.222656 0.140625 "/>
<path style=" stroke:none;fill-rule:nonzero;fill:rgb(99.607843%,99.607843%,99.607843%);fill-opacity:1;" d="M 25.554688 0 C 30.359375 2.90625 35.335938 5.605469 40.222656 8.382812 C 42.003906 9.394531 45.136719 10.488281 46.28125 12.230469 C 46.886719 13.15625 46.667969 14.503906 46.667969 15.554688 L 46.667969 32.890625 C 46.667969 34.246094 46.984375 36.085938 46.34375 37.328125 C 45.429688 39.105469 42.550781 40.128906 40.890625 41.078125 C 37.546875 42.984375 34.234375 44.945312 30.890625 46.855469 C 29.105469 47.875 27.320312 49.207031 25.332031 49.777344 C 26.15625 50.121094 27.113281 50 28 50 L 50 50 L 50 0 L 25.554688 0 M 38.667969 32.890625 C 37.578125 32.171875 36.453125 31.507812 35.332031 30.84375 C 34.894531 30.585938 34.339844 30.15625 33.796875 30.226562 C 32.753906 30.367188 31.675781 32.164062 30.890625 32.816406 C 29.027344 34.351562 26.390625 35.136719 24 34.792969 C 15.917969 33.632812 12.132812 23.589844 18.226562 17.796875 C 19.191406 16.878906 20.316406 16.144531 21.554688 15.660156 C 24.382812 14.550781 27.992188 15 30.445312 16.804688 C 31.394531 17.503906 32.621094 19.613281 33.796875 19.773438 C 34.335938 19.84375 34.886719 19.421875 35.332031 19.179688 C 36.539062 18.527344 37.742188 17.867188 38.890625 17.109375 C 35.246094 9.445312 24.46875 6.921875 17.332031 10.898438 C 11.179688 14.328125 7.921875 21.339844 9.289062 28.222656 C 11.253906 38.082031 21.964844 43.394531 31.109375 39.820312 C 34.09375 38.652344 37.71875 36.089844 38.667969 32.890625 Z M 38.667969 32.890625 "/>
</g>
</svg>
