<?xml version="1.0" encoding="UTF-8"?>
<svg xmlns="http://www.w3.org/2000/svg" xmlns:xlink="http://www.w3.org/1999/xlink" width="100pt" height="50pt" viewBox="0 0 100 50" version="1.1">
<g id="surface1">
<path style=" stroke:none;fill-rule:nonzero;fill:rgb(99.607843%,99.607843%,99.607843%);fill-opacity:1;" d="M 0 0 L 99.207031 0 L 99.207031 49.601562 L 0 49.601562 Z M 0 0 "/>
<path style=" stroke:none;fill-rule:nonzero;fill:rgb(23,37,42);fill-opacity:1;" d="M 40.628906 3.777344 L 40.628906 9.449219 L 45.347656 9.449219 L 45.347656 7.558594 L 42.519531 7.558594 C 42.582031 5.640625 43.710938 5.667969 45.347656 5.667969 L 45.347656 3.777344 L 40.628906 3.777344 M 47.238281 3.777344 C 47.246094 5.542969 47.90625 6.332031 49.128906 7.558594 L 47.238281 7.558594 L 47.238281 9.449219 L 51.726562 9.449219 C 51.726562 7.800781 51.027344 7.066406 50.308594 5.667969 L 51.726562 5.667969 L 51.726562 3.777344 L 47.238281 3.777344 M 53.859375 3.777344 C 53.859375 5.542969 54.523438 6.332031 55.742188 7.558594 L 53.859375 7.558594 L 53.859375 9.449219 L 58.578125 9.449219 C 58.570312 7.683594 57.910156 6.898438 56.6875 5.667969 L 58.578125 5.667969 L 58.578125 3.777344 Z M 53.859375 3.777344 "/>
<path style=" stroke:none;fill-rule:nonzero;fill:rgb(23,37,42);fill-opacity:1;" d="M 42.75 5.667969 C 43.566406 6.011719 44.480469 5.90625 45.347656 5.90625 C 44.542969 5.566406 43.628906 5.667969 42.75 5.667969 Z M 42.75 5.667969 "/>
<path style=" stroke:none;fill-rule:nonzero;fill:rgb(23,37,42);fill-opacity:1;" d="M 47.238281 5.667969 L 47.480469 5.90625 Z M 47.238281 5.667969 "/>
<path style=" stroke:none;fill-rule:nonzero;fill:rgb(23,37,42);fill-opacity:1;" d="M 50.308594 5.667969 C 50.796875 5.875 51.199219 5.894531 51.726562 5.90625 C 51.246094 5.699219 50.84375 5.679688 50.308594 5.667969 Z M 50.308594 5.667969 "/>
<path style=" stroke:none;fill-rule:nonzero;fill:rgb(23,37,42);fill-opacity:1;" d="M 53.859375 5.667969 L 54.089844 5.90625 L 53.859375 5.667969 M 56.6875 5.667969 L 56.925781 5.90625 Z M 56.6875 5.667969 "/>
<path style=" stroke:none;fill-rule:nonzero;fill:rgb(23,37,42);fill-opacity:1;" d="M 56.925781 5.667969 C 57.476562 5.902344 57.980469 5.902344 58.578125 5.90625 C 58.027344 5.671875 57.523438 5.671875 56.925781 5.667969 Z M 56.925781 5.667969 "/>
<path style=" stroke:none;fill-rule:nonzero;fill:rgb(23,37,42);fill-opacity:1;" d="M 42.519531 5.90625 L 42.519531 7.558594 C 42.765625 6.960938 42.765625 6.503906 42.519531 5.90625 M 47.480469 5.90625 L 47.710938 6.140625 L 47.480469 5.90625 M 54.089844 5.90625 L 54.332031 6.140625 L 54.089844 5.90625 M 47.710938 6.140625 L 47.953125 6.378906 L 47.710938 6.140625 M 54.332031 6.140625 L 54.5625 6.378906 Z M 54.332031 6.140625 "/>
<path style=" stroke:none;fill-rule:nonzero;fill:rgb(23,37,42);fill-opacity:1;" d="M 57.160156 6.140625 L 57.398438 6.378906 Z M 57.160156 6.140625 "/>
<path style=" stroke:none;fill-rule:nonzero;fill:rgb(23,37,42);fill-opacity:1;" d="M 47.953125 6.378906 L 48.183594 6.613281 L 47.953125 6.378906 M 50.546875 6.378906 L 50.78125 6.613281 L 50.546875 6.378906 M 54.5625 6.378906 L 54.796875 6.613281 L 54.5625 6.378906 M 48.183594 6.613281 L 48.425781 6.851562 L 48.183594 6.613281 M 54.796875 6.613281 L 55.035156 6.851562 Z M 54.796875 6.613281 "/>
<path style=" stroke:none;fill-rule:nonzero;fill:rgb(23,37,42);fill-opacity:1;" d="M 57.632812 6.613281 L 57.871094 6.851562 Z M 57.632812 6.613281 "/>
<path style=" stroke:none;fill-rule:nonzero;fill:rgb(23,37,42);fill-opacity:1;" d="M 48.425781 6.851562 L 48.65625 7.085938 L 48.425781 6.851562 M 51.023438 6.851562 L 51.253906 7.085938 L 51.023438 6.851562 M 55.035156 6.851562 L 55.269531 7.085938 L 55.035156 6.851562 M 48.65625 7.085938 L 48.898438 7.324219 L 48.65625 7.085938 M 51.253906 7.085938 L 51.496094 7.324219 L 51.253906 7.085938 M 55.269531 7.085938 L 55.507812 7.324219 Z M 55.269531 7.085938 "/>
<path style=" stroke:none;fill-rule:nonzero;fill:rgb(23,37,42);fill-opacity:1;" d="M 58.105469 7.085938 L 58.347656 7.324219 Z M 58.105469 7.085938 "/>
<path style=" stroke:none;fill-rule:nonzero;fill:rgb(23,37,42);fill-opacity:1;" d="M 48.898438 7.324219 L 49.128906 7.558594 L 48.898438 7.324219 M 51.496094 7.324219 L 51.726562 7.558594 Z M 51.496094 7.324219 "/>
<path style=" stroke:none;fill-rule:nonzero;fill:rgb(23,37,42);fill-opacity:1;" d="M 55.507812 7.324219 L 55.742188 7.558594 Z M 55.507812 7.324219 "/>
<path style=" stroke:none;fill-rule:nonzero;fill:rgb(23,37,42);fill-opacity:1;" d="M 34.722656 12.046875 C 35.652344 19.410156 36.101562 26.855469 36.808594 34.25 C 36.984375 36.113281 37.273438 38.046875 37.320312 39.917969 C 37.335938 40.648438 37.140625 41.742188 37.730469 42.292969 C 38.792969 43.292969 41.371094 43.511719 42.75 43.871094 C 44.867188 44.421875 47.410156 45.621094 49.601562 45.558594 C 53.695312 45.441406 57.578125 42.871094 61.648438 42.515625 C 62.167969 39.746094 62.128906 36.824219 62.398438 34.011719 C 63.097656 26.695312 63.5625 19.335938 64.484375 12.046875 Z M 34.722656 12.046875 "/>
<path style=" stroke:none;fill-rule:nonzero;fill:rgb(23,37,42);fill-opacity:1;" d="M 34.800781 12.914062 C 34.785156 12.925781 34.777344 13.175781 34.878906 13.070312 C 34.894531 13.054688 34.910156 12.808594 34.800781 12.914062 M 64.25 12.753906 L 64.25 13.699219 C 64.414062 13.285156 64.414062 13.171875 64.25 12.753906 M 34.953125 14.40625 L 34.953125 16.300781 C 35.234375 15.644531 35.234375 15.0625 34.953125 14.40625 M 49.601562 14.644531 L 49.601562 18.1875 L 42.519531 18.1875 C 41.628906 18.1875 40.378906 17.851562 40.15625 18.894531 C 41.796875 17.984375 44.230469 18.421875 46.0625 18.421875 L 58.820312 18.421875 C 58.820312 19.449219 58.972656 20.761719 58.359375 21.65625 C 57.78125 22.488281 56.632812 22.78125 55.742188 23.152344 C 53.867188 23.933594 52.035156 24.949219 50.074219 25.511719 C 50.953125 25.875 51.96875 25.746094 52.914062 25.746094 L 58.105469 25.746094 C 58.105469 29.613281 57.398438 33.449219 57.398438 37.320312 C 54.570312 37.566406 51.976562 39.085938 49.128906 39.210938 C 49.78125 40.371094 49.601562 41.695312 49.601562 42.988281 C 52.988281 42.722656 56.152344 41.082031 59.523438 40.628906 C 59.648438 34.589844 60.40625 28.449219 60.980469 22.4375 C 61.230469 19.828125 61.648438 17.273438 61.648438 14.644531 L 49.601562 14.644531 M 64.011719 14.644531 L 64.011719 16.300781 C 64.257812 15.699219 64.257812 15.246094 64.011719 14.644531 M 35.273438 18.109375 C 35.257812 18.121094 35.25 18.371094 35.351562 18.269531 C 35.367188 18.253906 35.382812 18.003906 35.273438 18.109375 M 63.777344 17.949219 L 63.777344 18.894531 C 63.941406 18.480469 63.941406 18.367188 63.777344 17.949219 Z M 63.777344 17.949219 "/>
<path style=" stroke:none;fill-rule:nonzero;fill:rgb(99.607843%,99.607843%,99.607843%);fill-opacity:1;" d="M 40.386719 18.421875 L 40.628906 21.96875 L 49.601562 21.96875 C 47.890625 23.054688 45.8125 23.714844 43.9375 24.472656 C 43.132812 24.792969 41.835938 25.066406 41.339844 25.839844 C 40.761719 26.738281 41.15625 28.3125 41.332031 29.289062 L 54.089844 29.527344 C 54.089844 30.6875 54.253906 32.957031 53.609375 33.941406 C 53.222656 34.546875 52.371094 34.644531 51.726562 34.8125 C 50.960938 35.011719 50.175781 35.371094 49.371094 35.339844 C 47.992188 35.289062 46.71875 34.605469 45.347656 34.484375 L 45.117188 31.417969 L 41.574219 31.417969 C 41.574219 33.410156 41.890625 35.339844 42.046875 37.320312 C 44.519531 37.882812 47.292969 39.253906 49.835938 39.179688 C 52.394531 39.105469 54.867188 37.691406 57.398438 37.320312 C 57.398438 33.449219 58.105469 29.617188 58.105469 25.746094 L 50.074219 25.746094 C 51.9375 24.863281 53.851562 24.058594 55.742188 23.246094 C 56.601562 22.882812 57.773438 22.625 58.359375 21.839844 C 59.027344 20.941406 58.820312 19.476562 58.820312 18.421875 Z M 40.386719 18.421875 "/>
<path style=" stroke:none;fill-rule:nonzero;fill:rgb(23,37,42);fill-opacity:1;" d="M 40.386719 19.839844 L 40.386719 21.96875 C 40.691406 21.257812 40.691406 20.546875 40.386719 19.839844 M 63.539062 19.839844 L 63.539062 21.496094 C 63.785156 20.894531 63.785156 20.4375 63.539062 19.839844 M 35.425781 20.3125 L 35.425781 21.730469 C 35.652344 21.191406 35.652344 20.851562 35.425781 20.3125 M 49.054688 22.28125 C 48.945312 22.386719 49.199219 22.375 49.207031 22.359375 C 49.316406 22.253906 49.070312 22.265625 49.054688 22.28125 M 48.425781 22.4375 L 48.65625 22.675781 L 48.425781 22.4375 M 47.953125 22.675781 L 48.183594 22.910156 L 47.953125 22.675781 M 47.238281 22.910156 L 47.480469 23.148438 L 47.238281 22.910156 M 35.667969 23.148438 L 35.667969 23.855469 C 35.832031 23.488281 35.832031 23.515625 35.667969 23.148438 M 46.765625 23.148438 L 47.007812 23.382812 L 46.765625 23.148438 M 46.0625 23.382812 L 46.292969 23.621094 L 46.0625 23.382812 M 63.304688 23.382812 L 63.304688 24.09375 C 63.46875 23.722656 63.46875 23.75 63.304688 23.382812 M 45.589844 23.621094 L 45.820312 23.855469 L 45.589844 23.621094 M 45.039062 23.933594 C 44.929688 24.042969 45.175781 24.027344 45.191406 24.015625 C 45.300781 23.910156 45.046875 23.921875 45.039062 23.933594 M 44.410156 24.09375 L 44.644531 24.328125 L 44.410156 24.09375 M 43.9375 24.328125 L 44.171875 24.566406 L 43.9375 24.328125 M 43.222656 24.566406 L 43.464844 24.800781 L 43.222656 24.566406 M 42.75 24.800781 L 42.992188 25.039062 L 42.75 24.800781 M 42.046875 25.039062 L 42.277344 25.273438 L 42.046875 25.039062 M 41.574219 25.273438 L 41.804688 25.511719 L 41.574219 25.273438 M 35.898438 25.511719 L 35.898438 27.164062 C 36.15625 26.566406 36.15625 26.109375 35.898438 25.511719 M 40.859375 25.511719 L 40.859375 26.929688 C 41.085938 26.46875 41.203125 26.007812 41.332031 25.511719 L 40.859375 25.511719 M 63.066406 25.984375 L 63.066406 26.929688 C 63.234375 26.511719 63.234375 26.398438 63.066406 25.984375 M 36.140625 27.871094 L 36.140625 29.527344 C 36.386719 28.929688 36.386719 28.472656 36.140625 27.871094 M 41.101562 28.578125 L 41.101562 29.289062 C 41.261719 28.921875 41.261719 28.949219 41.101562 28.578125 M 62.832031 28.578125 L 62.832031 29.289062 C 62.996094 28.921875 62.996094 28.949219 62.832031 28.578125 M 41.332031 29.289062 C 42.210938 29.65625 43.230469 29.527344 44.171875 29.527344 L 49.601562 29.527344 C 48.726562 29.15625 47.710938 29.289062 46.765625 29.289062 L 41.332031 29.289062 M 49.601562 29.527344 L 49.601562 35.429688 C 50.585938 35.265625 52.988281 34.953125 53.609375 34.117188 C 54.308594 33.175781 54.089844 30.671875 54.089844 29.527344 L 49.601562 29.527344 M 36.375 30.945312 L 36.375 31.652344 C 36.542969 31.285156 36.542969 31.308594 36.375 30.945312 M 41.410156 31.570312 C 41.402344 31.585938 41.386719 31.835938 41.496094 31.730469 C 41.503906 31.71875 41.519531 31.46875 41.410156 31.570312 M 45.117188 31.417969 L 45.117188 32.59375 C 45.308594 32.117188 45.308594 31.894531 45.117188 31.417969 M 62.59375 31.417969 L 62.59375 32.125 C 62.753906 31.757812 62.753906 31.78125 62.59375 31.417969 M 62.359375 33.304688 L 62.359375 34.722656 C 62.585938 34.183594 62.585938 33.847656 62.359375 33.304688 M 36.613281 33.539062 L 36.613281 34.722656 C 36.808594 34.242188 36.808594 34.019531 36.613281 33.539062 M 41.574219 34.011719 L 41.574219 35.195312 C 41.765625 34.714844 41.765625 34.492188 41.574219 34.011719 M 45.347656 34.25 L 45.589844 34.484375 L 45.347656 34.25 M 46.292969 34.484375 L 46.535156 34.722656 L 46.292969 34.484375 M 47.160156 34.800781 C 47.0625 34.90625 47.308594 34.894531 47.316406 34.882812 C 47.425781 34.777344 47.175781 34.789062 47.160156 34.800781 M 47.710938 34.957031 C 48.007812 35.121094 48.078125 35.136719 48.425781 35.195312 C 48.128906 35.03125 48.054688 35.015625 47.710938 34.957031 M 48.898438 35.195312 L 49.128906 35.429688 L 48.898438 35.195312 M 41.804688 36.140625 L 41.804688 37.085938 C 41.976562 36.667969 41.976562 36.554688 41.804688 36.140625 M 36.847656 36.378906 L 36.847656 37.085938 C 37.007812 36.71875 37.007812 36.742188 36.847656 36.378906 M 62.121094 36.378906 L 62.121094 37.554688 C 62.320312 37.078125 62.320312 36.855469 62.121094 36.378906 M 44.324219 37.871094 C 44.222656 37.976562 44.472656 37.960938 44.488281 37.949219 C 44.589844 37.84375 44.339844 37.855469 44.324219 37.871094 M 45.117188 38.027344 L 45.347656 38.265625 L 45.117188 38.027344 M 45.984375 38.34375 C 45.875 38.449219 46.125 38.433594 46.140625 38.421875 C 46.246094 38.320312 45.992188 38.332031 45.984375 38.34375 M 37.085938 38.5 L 37.085938 40.390625 C 37.355469 39.738281 37.355469 39.15625 37.085938 38.5 M 46.765625 38.5 L 47.007812 38.738281 L 46.765625 38.5 M 61.886719 38.5 L 61.886719 40.390625 C 62.160156 39.738281 62.160156 39.15625 61.886719 38.5 M 48.582031 39.050781 C 48.472656 39.160156 48.726562 39.144531 48.734375 39.132812 C 48.84375 39.027344 48.59375 39.039062 48.582031 39.050781 M 61.726562 41.964844 C 61.71875 41.980469 61.703125 42.230469 61.808594 42.125 C 61.816406 42.109375 61.832031 41.859375 61.726562 41.964844 M 37.394531 42.203125 C 37.386719 42.21875 37.371094 42.464844 37.480469 42.359375 C 37.488281 42.34375 37.503906 42.097656 37.394531 42.203125 M 38.1875 42.597656 C 38.078125 42.703125 38.332031 42.6875 38.339844 42.675781 C 38.449219 42.570312 38.203125 42.582031 38.1875 42.597656 M 60.625 42.597656 C 60.523438 42.703125 60.773438 42.6875 60.789062 42.675781 C 60.886719 42.570312 60.640625 42.582031 60.625 42.597656 M 38.976562 42.75 L 39.210938 42.988281 L 38.976562 42.75 M 59.757812 42.75 L 59.996094 42.988281 L 59.757812 42.75 M 58.578125 42.988281 C 58.871094 43.152344 58.941406 43.167969 59.292969 43.222656 C 58.988281 43.066406 58.917969 43.050781 58.578125 42.988281 M 40.386719 43.222656 C 40.683594 43.386719 40.761719 43.402344 41.101562 43.460938 C 40.804688 43.296875 40.738281 43.285156 40.386719 43.222656 M 42.441406 43.773438 C 42.332031 43.882812 42.582031 43.867188 42.597656 43.855469 C 42.699219 43.75 42.449219 43.761719 42.441406 43.773438 M 56.214844 43.699219 C 56.507812 43.859375 56.585938 43.875 56.925781 43.933594 C 56.632812 43.769531 56.5625 43.753906 56.214844 43.699219 M 43.222656 43.933594 L 43.464844 44.171875 L 43.222656 43.933594 M 55.507812 43.933594 L 55.742188 44.171875 L 55.507812 43.933594 M 43.9375 44.171875 C 44.230469 44.332031 44.300781 44.347656 44.644531 44.40625 C 44.347656 44.242188 44.277344 44.226562 43.9375 44.171875 M 54.71875 44.246094 C 54.617188 44.355469 54.867188 44.339844 54.882812 44.328125 C 54.980469 44.222656 54.734375 44.234375 54.71875 44.246094 M 44.644531 44.40625 C 44.9375 44.570312 45.007812 44.585938 45.347656 44.644531 C 45.054688 44.480469 44.984375 44.464844 44.644531 44.40625 M 53.859375 44.40625 L 54.089844 44.644531 L 53.859375 44.40625 M 45.984375 44.71875 C 45.875 44.824219 46.125 44.8125 46.140625 44.800781 C 46.246094 44.695312 45.992188 44.707031 45.984375 44.71875 M 52.671875 44.644531 C 52.96875 44.804688 53.035156 44.820312 53.386719 44.878906 C 53.089844 44.714844 53.011719 44.699219 52.671875 44.644531 M 46.292969 44.878906 C 46.589844 45.042969 46.664062 45.058594 47.007812 45.117188 C 46.710938 44.953125 46.640625 44.9375 46.292969 44.878906 M 47.480469 45.117188 L 47.710938 45.351562 L 47.480469 45.117188 M 51.253906 45.117188 L 51.496094 45.351562 L 51.253906 45.117188 M 48.339844 45.429688 C 48.238281 45.535156 48.488281 45.523438 48.503906 45.511719 C 48.601562 45.402344 48.355469 45.417969 48.339844 45.429688 M 50.472656 45.429688 C 50.363281 45.535156 50.609375 45.523438 50.625 45.511719 C 50.734375 45.402344 50.480469 45.417969 50.472656 45.429688 M 49.128906 45.589844 C 49.425781 45.75 49.496094 45.761719 49.835938 45.824219 C 49.542969 45.660156 49.472656 45.648438 49.128906 45.589844 Z M 49.128906 45.589844 "/>
</g>
</svg>
