<?xml version="1.0" encoding="UTF-8"?>
<svg xmlns="http://www.w3.org/2000/svg" xmlns:xlink="http://www.w3.org/1999/xlink" width="50pt" height="50pt" viewBox="0 0 50 50" version="1.1">
<g id="surface1">
<path style=" stroke:none;fill-rule:nonzero;fill:rgb(99.215686%,99.215686%,99.215686%);fill-opacity:1;" d="M 0 0 L 0 50 L 24.804688 50 C 24.460938 49.816406 24.007812 49.753906 23.632812 49.652344 C 22.914062 49.457031 22.199219 49.253906 21.484375 49.050781 C 19.078125 48.367188 16.667969 47.710938 14.257812 47.042969 L 11.621094 46.308594 C 11.324219 46.226562 10.796875 46.1875 10.570312 45.96875 C 10.414062 45.816406 10.457031 45.558594 10.433594 45.359375 C 10.371094 44.808594 10.355469 44.253906 10.289062 43.703125 C 10.011719 41.371094 9.835938 39.007812 9.664062 36.671875 C 9.496094 34.390625 9.257812 32.109375 9.042969 29.832031 C 8.664062 25.898438 8.378906 21.953125 8 18.015625 C 7.824219 16.195312 7.6875 14.371094 7.511719 12.550781 C 7.421875 11.648438 7.277344 10.71875 7.277344 9.816406 L 42.722656 9.816406 C 42.722656 10.546875 42.585938 11.28125 42.535156 12.011719 C 42.40625 13.820312 42.222656 15.628906 42.050781 17.429688 C 41.691406 21.1875 41.414062 24.953125 41.054688 28.710938 C 40.804688 31.34375 40.523438 33.984375 40.335938 36.621094 C 40.171875 38.960938 39.988281 41.324219 39.710938 43.652344 C 39.644531 44.203125 39.628906 44.761719 39.566406 45.3125 C 39.539062 45.519531 39.585938 45.804688 39.425781 45.96875 C 39.203125 46.195312 38.628906 46.238281 38.332031 46.324219 C 37.40625 46.589844 36.472656 46.832031 35.546875 47.089844 L 28.859375 48.945312 C 27.644531 49.285156 26.429688 49.695312 25.195312 49.953125 C 25.414062 50.042969 25.691406 50 25.929688 50 L 50 50 L 50 0 L 36.328125 0 L 36.328125 4.492188 L 39.5 4.492188 L 39.5 6.789062 L 34.03125 6.789062 L 34.03125 0 L 32.960938 0 L 32.960938 6.789062 L 30.664062 6.789062 L 30.664062 3.515625 C 30.375 3.820312 30.175781 4.234375 29.945312 4.589844 C 29.695312 4.980469 29.363281 5.375 29.199219 5.8125 C 28.933594 5.675781 28.808594 5.367188 28.644531 5.125 C 28.300781 4.609375 27.980469 4.082031 27.636719 3.5625 C 27.515625 3.855469 27.585938 4.277344 27.585938 4.589844 L 27.585938 6.789062 L 25.339844 6.789062 L 25.339844 0 L 24.367188 0 L 24.367188 2.246094 L 22.410156 2.246094 L 22.410156 6.789062 L 20.75 6.789062 C 20.582031 6.789062 20.28125 6.84375 20.144531 6.710938 C 20.054688 6.617188 20.070312 6.464844 20.066406 6.347656 L 20.066406 2.246094 L 18.117188 2.246094 L 18.117188 0 L 17.1875 0 L 17.1875 6.789062 L 14.894531 6.789062 L 14.894531 4.492188 L 12.84375 4.492188 L 12.84375 6.789062 L 10.546875 6.789062 L 10.546875 0 Z M 0 0 "/>
<path style=" stroke:none;fill-rule:nonzero;fill:rgb(23,37,42);fill-opacity:1;" d="M 10.546875 0 L 10.546875 6.789062 L 12.84375 6.789062 L 12.84375 4.492188 L 14.894531 4.492188 L 14.894531 6.789062 L 17.1875 6.789062 L 17.1875 0 L 14.894531 0 L 14.894531 2.195312 L 12.84375 2.195312 L 12.84375 0 Z M 10.546875 0 "/>
<path style=" stroke:none;fill-rule:nonzero;fill:rgb(99.215686%,99.215686%,99.215686%);fill-opacity:1;" d="M 12.84375 0 L 12.84375 2.195312 L 14.894531 2.195312 L 14.894531 0 Z M 12.84375 0 "/>
<path style=" stroke:none;fill-rule:nonzero;fill:rgb(23,37,42);fill-opacity:1;" d="M 18.117188 0 L 18.117188 2.246094 L 20.066406 2.246094 L 20.066406 6.398438 C 20.070312 6.503906 20.050781 6.660156 20.144531 6.738281 C 20.28125 6.84375 20.589844 6.789062 20.75 6.789062 L 22.410156 6.789062 L 22.410156 2.246094 L 24.367188 2.246094 L 24.367188 0 L 18.117188 0 M 25.339844 0 L 25.339844 6.789062 L 27.585938 6.789062 L 27.585938 3.5625 C 27.976562 4.074219 28.292969 4.644531 28.644531 5.175781 C 28.800781 5.40625 28.921875 5.726562 29.199219 5.8125 C 29.625 5.046875 30.3125 4.339844 30.617188 3.515625 C 30.71875 3.863281 30.664062 4.277344 30.664062 4.640625 L 30.664062 6.789062 L 32.960938 6.789062 L 32.960938 0 L 31.296875 0 C 31.089844 0 30.777344 -0.0585938 30.582031 0.03125 C 30.378906 0.121094 30.253906 0.453125 30.144531 0.632812 C 29.816406 1.179688 29.421875 1.71875 29.148438 2.296875 C 28.8125 1.785156 28.507812 1.253906 28.191406 0.734375 C 28.070312 0.527344 27.929688 0.175781 27.71875 0.0507812 C 27.535156 -0.0625 27.207031 0 27 0 Z M 25.339844 0 "/>
<path style=" stroke:none;fill-rule:nonzero;fill:rgb(99.215686%,99.215686%,99.215686%);fill-opacity:1;" d="M 27.734375 0 C 27.972656 0.507812 28.3125 0.988281 28.609375 1.464844 C 28.785156 1.742188 28.925781 2.058594 29.148438 2.296875 C 29.429688 1.882812 29.671875 1.445312 29.933594 1.023438 C 30.140625 0.699219 30.382812 0.363281 30.515625 0 Z M 27.734375 0 "/>
<path style=" stroke:none;fill-rule:nonzero;fill:rrgb(23,37,42);fill-opacity:1;" d="M 34.03125 0 L 34.03125 6.789062 L 39.5 6.789062 L 39.5 4.492188 L 36.328125 4.492188 L 36.328125 0 L 34.03125 0 M 7.277344 9.816406 C 7.277344 10.914062 7.453125 12.039062 7.558594 13.132812 C 7.769531 15.316406 7.9375 17.5 8.144531 19.679688 C 8.6875 25.339844 9.113281 31.007812 9.660156 36.671875 C 9.875 38.890625 10.128906 41.132812 10.253906 43.359375 C 10.289062 44.003906 10.335938 44.671875 10.421875 45.3125 C 10.445312 45.507812 10.402344 45.8125 10.539062 45.96875 C 10.640625 46.085938 10.84375 46.109375 10.988281 46.148438 L 12.011719 46.433594 C 13.324219 46.8125 14.648438 47.164062 15.96875 47.53125 L 22.117188 49.238281 C 22.722656 49.40625 23.324219 49.570312 23.925781 49.742188 C 24.265625 49.839844 24.640625 49.996094 25 49.996094 C 25.28125 49.996094 25.5625 49.871094 25.828125 49.796875 C 26.386719 49.652344 26.9375 49.492188 27.492188 49.335938 C 29.34375 48.820312 31.195312 48.289062 33.054688 47.796875 C 34.65625 47.375 36.25 46.921875 37.839844 46.46875 C 38.230469 46.359375 38.621094 46.25 39.015625 46.148438 C 39.164062 46.109375 39.394531 46.082031 39.480469 45.933594 C 39.628906 45.6875 39.585938 45.203125 39.601562 44.921875 C 39.628906 44.355469 39.699219 43.777344 39.753906 43.210938 C 39.984375 40.839844 40.160156 38.457031 40.390625 36.085938 C 40.933594 30.441406 41.355469 24.785156 41.902344 19.140625 C 42.097656 17.140625 42.246094 15.136719 42.441406 13.132812 C 42.546875 12.039062 42.722656 10.914062 42.722656 9.816406 Z M 7.277344 9.816406 "/>
<path style=" stroke:none;fill-rule:nonzero;fill:rgb(99.215686%,99.215686%,99.215686%);fill-opacity:1;" d="M 13.867188 17.234375 C 14.429688 21.679688 14.527344 26.175781 15.089844 30.617188 L 30.421875 30.617188 C 30.421875 31.984375 30.15625 33.351562 30.078125 34.714844 C 30.058594 35.089844 30.011719 35.464844 29.976562 35.839844 C 29.960938 35.992188 29.964844 36.226562 29.855469 36.34375 C 29.714844 36.488281 29.429688 36.507812 29.25 36.558594 C 28.730469 36.707031 28.207031 36.84375 27.6875 36.980469 C 27.050781 37.148438 26.417969 37.332031 25.78125 37.492188 C 25.53125 37.558594 25.261719 37.671875 25 37.683594 C 24.652344 37.695312 24.257812 37.515625 23.925781 37.421875 C 23.292969 37.246094 22.65625 37.074219 22.019531 36.90625 C 21.582031 36.792969 21.144531 36.667969 20.703125 36.554688 C 20.523438 36.507812 20.230469 36.476562 20.097656 36.339844 C 19.921875 36.160156 19.984375 35.683594 19.960938 35.449219 C 19.878906 34.589844 19.761719 33.722656 19.726562 32.859375 L 15.285156 32.859375 C 15.316406 34.492188 15.640625 36.113281 15.722656 37.742188 C 15.746094 38.246094 15.796875 38.757812 15.855469 39.257812 C 15.875 39.421875 15.835938 39.636719 15.953125 39.769531 C 16.050781 39.878906 16.222656 39.898438 16.359375 39.933594 C 16.601562 40 16.84375 40.078125 17.089844 40.144531 C 18.035156 40.394531 18.976562 40.667969 19.921875 40.925781 C 21.09375 41.242188 22.261719 41.585938 23.4375 41.902344 C 23.910156 42.03125 24.507812 42.320312 25 42.308594 C 25.195312 42.304688 25.398438 42.21875 25.585938 42.167969 C 26.011719 42.058594 26.433594 41.9375 26.855469 41.816406 C 28.054688 41.476562 29.261719 41.132812 30.46875 40.8125 C 31.316406 40.589844 32.164062 40.351562 33.007812 40.117188 C 33.273438 40.042969 33.800781 39.996094 34.003906 39.800781 C 34.175781 39.636719 34.121094 39.183594 34.152344 38.964844 C 34.265625 38.105469 34.289062 37.238281 34.382812 36.375 C 34.542969 34.882812 34.632812 33.378906 34.773438 31.882812 C 34.957031 29.980469 35.152344 28.078125 35.300781 26.171875 L 19.140625 26.21875 C 19.042969 25.457031 19.007812 24.691406 18.9375 23.925781 C 18.863281 23.164062 18.75 22.398438 18.75 21.628906 L 35.695312 21.628906 C 35.757812 20.164062 36.054688 18.703125 36.085938 17.234375 Z M 13.867188 17.234375 "/>
</g>
</svg>
