<?xml version="1.0" encoding="UTF-8"?>
<svg xmlns="http://www.w3.org/2000/svg" xmlns:xlink="http://www.w3.org/1999/xlink" width="50pt" height="50pt" viewBox="0 0 50 50" version="1.1">
<g id="surface1">
<rect x="0" y="0" width="50" height="50" style="fill:rgb(99.607843%,99.607843%,99.607843%);fill-opacity:1;stroke:none;"/>
<path style=" stroke:none;fill-rule:nonzero;fill:rgb(23,37,42);fill-opacity:1;" d="M 28 0.667969 C 28.328125 3.105469 28.472656 4.902344 26.625 6.867188 C 25.128906 8.460938 23.324219 9.777344 21.777344 11.332031 C 21.019531 12.09375 20.15625 12.867188 20.050781 14 C 19.78125 16.898438 22.859375 19.304688 24.667969 21.109375 C 25.472656 20.257812 24.867188 19.53125 24.296875 18.667969 C 23.472656 17.414062 22.382812 16.039062 22.789062 14.445312 C 23.089844 13.277344 24.039062 12.371094 24.890625 11.574219 C 27.3125 9.308594 31.476562 5.78125 29.226562 2 C 28.894531 1.445312 28.503906 1.054688 28 0.667969 M 26.222656 22.222656 C 23.753906 22.328125 21.359375 22.496094 18.890625 22.445312 C 19.523438 21.804688 20.285156 21.457031 21.109375 21.109375 L 21.109375 20.667969 L 20.890625 20.445312 C 19.589844 20.742188 18.03125 21.054688 16.902344 21.792969 C 15.230469 22.882812 16.765625 23.761719 18 23.980469 C 18.515625 24.074219 19.035156 24.15625 19.554688 24.222656 C 19.269531 24.445312 18.945312 24.65625 18.707031 24.9375 C 17.0625 26.878906 19.527344 27.621094 21.109375 27.867188 C 24.40625 28.386719 28.351562 27.71875 31.554688 26.890625 C 30.800781 24.953125 29.527344 25.285156 27.777344 25.574219 C 26.042969 25.859375 24.203125 26 22.445312 26 C 21.789062 26 20.867188 26.132812 20.296875 25.738281 C 19.496094 25.183594 20.191406 24.375 20.898438 24.253906 C 22.203125 24.035156 23.574219 24.085938 24.890625 23.90625 C 27.445312 23.554688 29.921875 22.964844 32.445312 22.445312 C 31.523438 21.175781 28.320312 22.160156 26.890625 22.222656 C 28.164062 20.945312 29.792969 19.566406 29.1875 17.554688 C 28.824219 16.34375 27.234375 15.128906 27.597656 13.777344 C 27.835938 12.90625 28.667969 12.207031 29.332031 11.660156 C 30.796875 10.449219 32.429688 9.503906 34 8.445312 C 32.902344 8.105469 31.679688 8.679688 30.667969 9.109375 C 28.191406 10.167969 24.953125 11.558594 24.714844 14.667969 C 24.5625 16.699219 26.289062 17.773438 26.710938 19.554688 C 26.910156 20.410156 26.308594 21.363281 26.222656 22.222656 M 32.445312 21.332031 C 32.972656 21.355469 33.480469 21.40625 34 21.5 C 35.488281 21.773438 36.46875 22.789062 35.429688 24.21875 C 34.464844 25.539062 32.886719 26.433594 31.554688 27.332031 C 34.132812 28.402344 38.910156 25.140625 38.125 22.222656 C 37.460938 19.757812 33.890625 19.652344 32.445312 21.332031 M 18.222656 29.554688 C 21.351562 33.308594 27.625 31.023438 31.554688 30.445312 L 31.554688 30 C 30.191406 29.886719 28.910156 29.296875 27.554688 29.199219 C 26.21875 29.097656 24.898438 29.640625 23.554688 29.492188 C 22.414062 29.363281 20.859375 28.457031 19.777344 28.632812 C 19.195312 28.726562 18.683594 29.21875 18.222656 29.554688 M 37.777344 33.332031 C 35.175781 33.558594 32.59375 34.597656 30 35.015625 C 25.847656 35.679688 21.941406 35.589844 17.777344 35.554688 C 19.84375 34.945312 22.09375 35.160156 24.222656 35.109375 C 26.949219 35.042969 29.992188 34.796875 32.667969 34.265625 C 34.164062 33.96875 37.726562 32.714844 35.554688 30.890625 C 34.714844 32.507812 32.304688 32.636719 30.667969 32.90625 C 25.820312 33.707031 20.621094 33.789062 15.777344 32.890625 C 16.667969 32.089844 17.597656 31.617188 18.667969 31.109375 C 17.148438 30.472656 14.570312 30.820312 13.113281 31.539062 C 12.203125 31.988281 11.324219 33.15625 12.132812 34.128906 C 13.054688 35.234375 14.832031 34.78125 16 35.335938 C 17.019531 35.820312 17.773438 36.539062 18.890625 36.878906 C 23.1875 38.195312 27.796875 37.140625 32 35.933594 C 33.542969 35.492188 37.210938 34.992188 37.777344 33.332031 M 14.667969 37.109375 L 14.667969 43.777344 C 14.667969 45.671875 14.769531 47.210938 13.109375 48.445312 L 13.777344 49.554688 C 14.707031 49.113281 15.589844 48.550781 15.996094 47.554688 C 16.429688 46.496094 16.222656 45.121094 16.222656 44 L 16.222656 37.109375 L 14.667969 37.109375 M 17.777344 40 C 17.816406 40.417969 17.875 40.710938 18 41.109375 C 19.597656 40.664062 21.148438 40.453125 21.554688 42.445312 C 20.4375 42.535156 18.933594 42.679688 18.050781 43.445312 C 17.066406 44.304688 17.152344 45.972656 18.246094 46.699219 C 19.203125 47.332031 20.09375 46.816406 21.089844 46.695312 C 21.679688 46.625 22.296875 46.851562 22.890625 46.890625 L 22.886719 42.222656 C 22.882812 41.402344 22.90625 40.535156 22.171875 40.003906 C 20.964844 39.125 19.097656 39.75 17.777344 40 M 31.109375 40 L 31.109375 40.890625 C 32.757812 40.855469 34.550781 40.261719 34.890625 42.445312 C 33.78125 42.53125 32.257812 42.671875 31.394531 43.445312 C 30.492188 44.257812 30.460938 46.011719 31.585938 46.660156 C 32.460938 47.164062 33.507812 46.730469 34.425781 46.667969 C 35.089844 46.621094 35.769531 46.871094 36.445312 46.890625 C 36.445312 44.257812 37.429688 39.492188 33.554688 39.566406 C 32.722656 39.582031 31.921875 39.832031 31.109375 40 M 23.777344 39.777344 C 24.304688 41.402344 24.828125 43.027344 25.300781 44.667969 C 25.496094 45.335938 25.640625 46.261719 26.285156 46.660156 C 27.308594 47.292969 28.09375 46.425781 28.453125 45.554688 C 29.1875 43.761719 29.839844 41.714844 30 39.777344 C 27.632812 39.855469 27.871094 43.34375 27.109375 45.109375 C 26.773438 43.917969 26.378906 42.746094 26.03125 41.554688 C 25.871094 41.015625 25.742188 40.34375 25.242188 40.007812 C 24.824219 39.726562 24.253906 39.785156 23.777344 39.777344 Z M 23.777344 39.777344 "/>
<path style=" stroke:none;fill-rule:nonzero;fill:rgb(99.607843%,99.607843%,99.607843%);fill-opacity:1;" d="M 21.554688 43.554688 C 21.113281 43.558594 20.65625 43.539062 20.222656 43.632812 C 20.015625 43.675781 19.769531 43.726562 19.589844 43.847656 C 17.695312 45.113281 20.578125 46.933594 21.421875 44.878906 C 21.589844 44.46875 21.550781 43.988281 21.554688 43.554688 M 34.890625 43.554688 C 34.449219 43.558594 33.992188 43.539062 33.554688 43.632812 C 30.746094 44.230469 33.742188 47.363281 34.753906 44.878906 C 34.921875 44.46875 34.882812 43.988281 34.890625 43.554688 Z M 34.890625 43.554688 "/>
</g>
</svg>
