<?xml version="1.0" encoding="UTF-8"?>
<svg xmlns="http://www.w3.org/2000/svg" xmlns:xlink="http://www.w3.org/1999/xlink" width="50pt" height="50pt" viewBox="0 0 50 50" version="1.1">
<g id="surface1">
<rect x="0" y="0" width="50" height="50" style="fill:rgb(99.215686%,99.215686%,99.215686%);fill-opacity:1;stroke:none;"/>
<path style=" stroke:none;fill-rule:nonzero;fill:rgb(23,37,42);fill-opacity:1;" d="M 21.890625 2.109375 L 21.890625 6.332031 L 19 6.332031 L 19 8.554688 L 24.109375 8.554688 L 24.109375 2.109375 L 21.890625 2.109375 M 25.109375 2.109375 C 25.109375 2.632812 25.007812 3.285156 25.207031 3.777344 C 25.40625 4.265625 25.863281 4.628906 26.21875 5 C 26.746094 5.550781 27.238281 6.125 27.777344 6.667969 L 25.109375 6.667969 L 25.109375 8.554688 L 31 8.554688 C 31 8.042969 31.113281 7.375 30.933594 6.890625 C 30.785156 6.484375 30.40625 6.195312 30.121094 5.890625 C 29.558594 5.28125 28.921875 4.675781 28.445312 4 L 30.890625 4 L 30.890625 2.109375 Z M 25.109375 2.109375 "/>
<path style=" stroke:none;fill-rule:nonzero;fill:rgb(23,37,42);fill-opacity:1;" d="M 8.445312 11.332031 C 9.28125 17.964844 9.597656 24.679688 10.242188 31.332031 C 10.523438 34.257812 10.738281 37.1875 11.019531 40.109375 C 11.175781 41.765625 11.441406 43.449219 11.445312 45.109375 C 14.523438 45.929688 17.597656 46.785156 20.667969 47.636719 C 21.515625 47.875 22.378906 48.09375 23.222656 48.355469 C 23.800781 48.535156 24.386719 48.785156 25 48.773438 C 26.394531 48.742188 27.996094 48.019531 29.332031 47.632812 C 32.375 46.761719 35.457031 45.753906 38.554688 45.109375 C 38.558594 43.414062 38.816406 41.6875 38.980469 40 C 39.261719 37.113281 39.480469 34.21875 39.757812 31.332031 C 40.402344 24.679688 40.71875 17.964844 41.554688 11.332031 Z M 8.445312 11.332031 "/>
<path style=" stroke:none;fill-rule:nonzero;fill:rgb(23,37,42);fill-opacity:1;" d="M 8.445312 11.667969 L 8.445312 12.332031 C 8.550781 12.078125 8.550781 11.921875 8.445312 11.667969 M 41.445312 11.667969 L 41.445312 12.332031 C 41.550781 12.078125 41.550781 11.921875 41.445312 11.667969 M 8.554688 12.890625 L 8.554688 13.554688 C 8.660156 13.300781 8.660156 13.144531 8.554688 12.890625 M 41.332031 12.890625 L 41.332031 13.554688 C 41.4375 13.300781 41.4375 13.144531 41.332031 12.890625 M 8.667969 14.109375 L 8.667969 14.777344 C 8.773438 14.523438 8.773438 14.363281 8.667969 14.109375 M 41.222656 14.109375 L 41.222656 14.777344 C 41.328125 14.523438 41.328125 14.363281 41.222656 14.109375 M 8.777344 15.332031 L 8.777344 16 C 8.882812 15.746094 8.882812 15.585938 8.777344 15.332031 M 41.109375 15.332031 L 41.109375 16 C 41.214844 15.746094 41.214844 15.585938 41.109375 15.332031 Z M 41.109375 15.332031 "/>
<path style=" stroke:none;fill-rule:nonzero;fill:rgb(99.215686%,99.215686%,99.215686%);fill-opacity:1;" d="M 17.222656 15.667969 C 17.222656 17.695312 16.882812 19.757812 16.6875 21.777344 C 16.398438 24.734375 16.261719 27.71875 15.890625 30.667969 L 30 30.777344 C 29.964844 32.558594 29.558594 34.328125 29.554688 36.109375 C 28 36.238281 26.542969 37.136719 25 37.242188 C 24.183594 37.296875 23.222656 36.855469 22.445312 36.632812 C 21.910156 36.484375 20.785156 36.433594 20.445312 35.953125 C 20.210938 35.621094 20.234375 35.054688 20.222656 34.667969 C 20.199219 34.03125 20.109375 33.414062 20.109375 32.777344 L 15.890625 32.777344 C 15.984375 34.960938 16.4375 37.144531 16.445312 39.332031 C 18.464844 39.796875 20.441406 40.457031 22.445312 40.988281 C 23.234375 41.195312 24.175781 41.65625 25 41.613281 C 25.765625 41.566406 26.597656 41.199219 27.332031 40.988281 C 29.320312 40.425781 31.40625 39.632812 33.445312 39.332031 C 33.765625 36.789062 33.886719 34.21875 34.128906 31.667969 C 34.292969 29.972656 34.554688 28.257812 34.554688 26.554688 L 20.445312 26.554688 C 20.488281 24.402344 20.992188 22.265625 21 20.109375 C 22.628906 20.109375 24.253906 19.960938 25.890625 20 C 27.261719 20.035156 28.621094 20.222656 30 20.222656 C 30.0625 21.667969 30.332031 23.105469 30.332031 24.554688 L 34.554688 24.554688 C 34.554688 22.40625 34.160156 20.253906 34.011719 18.109375 C 33.972656 17.59375 33.910156 17.074219 33.890625 16.554688 C 33.878906 16.304688 33.914062 15.957031 33.695312 15.78125 C 33.410156 15.550781 32.785156 15.667969 32.445312 15.667969 Z M 17.222656 15.667969 "/>
<path style=" stroke:none;fill-rule:nonzero;fill:rgb(23,37,42);fill-opacity:1;" d="M 41 16.554688 L 41 17.332031 C 41.117188 17.050781 41.117188 16.835938 41 16.554688 M 8.890625 16.667969 L 8.890625 17.332031 C 8.996094 17.078125 8.996094 16.921875 8.890625 16.667969 M 9 17.890625 L 9 18.554688 C 9.105469 18.300781 9.105469 18.144531 9 17.890625 M 40.890625 17.890625 L 40.890625 18.554688 C 40.996094 18.300781 40.996094 18.144531 40.890625 17.890625 M 9.109375 19.109375 L 9.109375 19.777344 C 9.214844 19.523438 9.214844 19.363281 9.109375 19.109375 M 40.777344 19.109375 L 40.777344 19.777344 C 40.882812 19.523438 40.882812 19.363281 40.777344 19.109375 M 9.222656 20.332031 L 9.222656 21 C 9.328125 20.746094 9.328125 20.585938 9.222656 20.332031 M 40.667969 20.332031 L 40.667969 21 C 40.773438 20.746094 40.773438 20.585938 40.667969 20.332031 M 9.332031 21.554688 L 9.332031 22.222656 C 9.4375 21.96875 9.4375 21.808594 9.332031 21.554688 M 40.554688 21.554688 L 40.554688 22.222656 C 40.660156 21.96875 40.660156 21.808594 40.554688 21.554688 M 40.445312 22.777344 L 40.445312 23.554688 C 40.5625 23.273438 40.5625 23.058594 40.445312 22.777344 M 9.445312 22.890625 L 9.445312 23.554688 C 9.550781 23.300781 9.550781 23.144531 9.445312 22.890625 M 9.554688 24.109375 L 9.554688 24.777344 C 9.660156 24.523438 9.660156 24.363281 9.554688 24.109375 M 40.332031 24.109375 L 40.332031 24.777344 C 40.4375 24.523438 40.4375 24.363281 40.332031 24.109375 M 9.667969 25.332031 L 9.667969 26 C 9.773438 25.746094 9.773438 25.585938 9.667969 25.332031 M 40.222656 25.332031 L 40.222656 26 C 40.328125 25.746094 40.328125 25.585938 40.222656 25.332031 M 9.777344 26.554688 L 9.777344 27.222656 C 9.882812 26.96875 9.882812 26.808594 9.777344 26.554688 M 40.109375 26.554688 L 40.109375 27.222656 C 40.214844 26.96875 40.214844 26.808594 40.109375 26.554688 M 9.890625 27.777344 L 9.890625 28.554688 C 10.007812 28.273438 10.007812 28.058594 9.890625 27.777344 M 40 27.777344 L 40 28.445312 C 40.105469 28.191406 40.105469 28.03125 40 27.777344 M 39.890625 29 L 39.890625 29.777344 C 40.007812 29.496094 40.007812 29.28125 39.890625 29 M 10 29.109375 L 10 29.777344 C 10.105469 29.523438 10.105469 29.363281 10 29.109375 M 10.109375 30.332031 L 10.109375 31 C 10.214844 30.746094 10.214844 30.585938 10.109375 30.332031 M 39.777344 30.332031 L 39.777344 31 C 39.882812 30.746094 39.882812 30.585938 39.777344 30.332031 M 10.222656 31.554688 L 10.222656 32.222656 C 10.328125 31.96875 10.328125 31.808594 10.222656 31.554688 M 39.667969 31.554688 L 39.667969 32.222656 C 39.773438 31.96875 39.773438 31.808594 39.667969 31.554688 M 10.332031 32.777344 L 10.332031 33.445312 C 10.4375 33.191406 10.4375 33.03125 10.332031 32.777344 M 39.554688 32.777344 L 39.554688 33.445312 C 39.660156 33.191406 39.660156 33.03125 39.554688 32.777344 M 39.445312 34 L 39.445312 34.667969 C 39.550781 34.414062 39.550781 34.253906 39.445312 34 M 10.445312 34.109375 L 10.445312 34.777344 C 10.550781 34.523438 10.550781 34.363281 10.445312 34.109375 M 10.554688 35.332031 L 10.554688 36 C 10.660156 35.746094 10.660156 35.585938 10.554688 35.332031 M 39.332031 35.332031 L 39.332031 36 C 39.4375 35.746094 39.4375 35.585938 39.332031 35.332031 M 10.667969 36.554688 L 10.667969 37.222656 C 10.773438 36.96875 10.773438 36.808594 10.667969 36.554688 M 39.222656 36.554688 L 39.222656 37.222656 C 39.328125 36.96875 39.328125 36.808594 39.222656 36.554688 M 10.777344 37.777344 L 10.777344 38.445312 C 10.882812 38.191406 10.882812 38.03125 10.777344 37.777344 M 39.109375 37.777344 L 39.109375 38.445312 C 39.214844 38.191406 39.214844 38.03125 39.109375 37.777344 M 10.890625 39 L 10.890625 39.777344 C 11.007812 39.496094 11.007812 39.28125 10.890625 39 M 39 39 L 39 39.667969 C 39.105469 39.414062 39.105469 39.253906 39 39 M 38.890625 40.222656 L 38.890625 40.890625 C 38.996094 40.636719 38.996094 40.476562 38.890625 40.222656 M 11 40.332031 L 11 41 C 11.105469 40.746094 11.105469 40.585938 11 40.332031 M 11.109375 41.554688 L 11.109375 42.222656 C 11.214844 41.96875 11.214844 41.808594 11.109375 41.554688 M 38.777344 41.554688 L 38.777344 42.222656 C 38.882812 41.96875 38.882812 41.808594 38.777344 41.554688 M 11.222656 42.777344 L 11.222656 43.445312 C 11.328125 43.191406 11.328125 43.03125 11.222656 42.777344 M 38.667969 42.777344 L 38.667969 43.445312 C 38.773438 43.191406 38.773438 43.03125 38.667969 42.777344 M 11.332031 44 L 11.332031 44.667969 C 11.4375 44.414062 11.4375 44.253906 11.332031 44 M 38.554688 44 L 38.554688 44.667969 C 38.660156 44.414062 38.660156 44.253906 38.554688 44 M 11.628906 45.148438 C 11.582031 45.199219 11.699219 45.191406 11.703125 45.183594 C 11.753906 45.136719 11.636719 45.140625 11.628906 45.148438 M 38.296875 45.148438 C 38.246094 45.199219 38.363281 45.191406 38.371094 45.183594 C 38.417969 45.136719 38.300781 45.140625 38.296875 45.148438 M 11.890625 45.222656 L 12 45.332031 L 11.890625 45.222656 M 37.851562 45.257812 C 37.800781 45.308594 37.917969 45.300781 37.925781 45.296875 C 37.976562 45.246094 37.859375 45.253906 37.851562 45.257812 M 12.40625 45.371094 C 12.359375 45.417969 12.476562 45.414062 12.480469 45.40625 C 12.53125 45.359375 12.414062 45.363281 12.40625 45.371094 M 37.519531 45.371094 C 37.46875 45.417969 37.585938 45.414062 37.59375 45.40625 C 37.640625 45.359375 37.523438 45.363281 37.519531 45.371094 M 12.851562 45.480469 C 12.800781 45.53125 12.917969 45.523438 12.925781 45.519531 C 12.976562 45.46875 12.859375 45.476562 12.851562 45.480469 M 37.074219 45.480469 C 37.023438 45.53125 37.140625 45.523438 37.148438 45.519531 C 37.199219 45.46875 37.082031 45.476562 37.074219 45.480469 M 13.183594 45.59375 C 13.136719 45.640625 13.253906 45.636719 13.257812 45.628906 C 13.308594 45.582031 13.191406 45.585938 13.183594 45.59375 M 36.742188 45.59375 C 36.691406 45.640625 36.808594 45.636719 36.816406 45.628906 C 36.863281 45.582031 36.746094 45.585938 36.742188 45.59375 M 13.628906 45.703125 C 13.582031 45.753906 13.699219 45.746094 13.703125 45.742188 C 13.753906 45.691406 13.636719 45.699219 13.628906 45.703125 M 36.109375 45.667969 C 36.25 45.742188 36.28125 45.75 36.445312 45.777344 C 36.304688 45.703125 36.273438 45.695312 36.109375 45.667969 M 13.890625 45.777344 L 14 45.890625 L 13.890625 45.777344 M 35.851562 45.816406 C 35.800781 45.863281 35.917969 45.859375 35.925781 45.851562 C 35.976562 45.800781 35.859375 45.808594 35.851562 45.816406 M 14.40625 45.925781 C 14.359375 45.976562 14.476562 45.96875 14.480469 45.964844 C 14.53125 45.914062 14.414062 45.917969 14.40625 45.925781 M 35.519531 45.925781 C 35.46875 45.976562 35.585938 45.96875 35.59375 45.964844 C 35.640625 45.914062 35.523438 45.917969 35.519531 45.925781 M 14.851562 46.035156 C 14.800781 46.085938 14.917969 46.082031 14.925781 46.074219 C 14.976562 46.023438 14.859375 46.03125 14.851562 46.035156 M 35.074219 46.035156 C 35.023438 46.085938 35.140625 46.082031 35.148438 46.074219 C 35.199219 46.023438 35.082031 46.03125 35.074219 46.035156 M 15.183594 46.148438 C 15.136719 46.199219 15.253906 46.191406 15.257812 46.183594 C 15.308594 46.136719 15.191406 46.140625 15.183594 46.148438 M 34.742188 46.148438 C 34.691406 46.199219 34.808594 46.191406 34.816406 46.183594 C 34.863281 46.136719 34.746094 46.140625 34.742188 46.148438 M 15.628906 46.257812 C 15.582031 46.308594 15.699219 46.300781 15.703125 46.296875 C 15.753906 46.246094 15.636719 46.253906 15.628906 46.257812 M 34.109375 46.222656 C 34.25 46.296875 34.28125 46.304688 34.445312 46.332031 C 34.304688 46.257812 34.273438 46.25 34.109375 46.222656 M 15.964844 46.371094 C 15.914062 46.417969 16.03125 46.414062 16.035156 46.40625 C 16.085938 46.359375 15.96875 46.363281 15.964844 46.371094 M 33.851562 46.371094 C 33.800781 46.417969 33.917969 46.414062 33.925781 46.40625 C 33.976562 46.359375 33.859375 46.363281 33.851562 46.371094 M 16.332031 46.445312 C 16.472656 46.519531 16.503906 46.527344 16.667969 46.554688 C 16.527344 46.480469 16.496094 46.472656 16.332031 46.445312 M 33.332031 46.445312 C 33.472656 46.519531 33.503906 46.527344 33.667969 46.554688 C 33.527344 46.480469 33.496094 46.472656 33.332031 46.445312 M 16.851562 46.59375 C 16.800781 46.640625 16.917969 46.636719 16.925781 46.628906 C 16.976562 46.582031 16.859375 46.585938 16.851562 46.59375 M 32.890625 46.554688 C 33.027344 46.632812 33.0625 46.640625 33.222656 46.667969 C 33.082031 46.589844 33.050781 46.582031 32.890625 46.554688 M 17.183594 46.703125 C 17.136719 46.753906 17.253906 46.746094 17.257812 46.742188 C 17.308594 46.691406 17.191406 46.699219 17.183594 46.703125 M 32.742188 46.703125 C 32.691406 46.753906 32.808594 46.746094 32.816406 46.742188 C 32.863281 46.691406 32.746094 46.699219 32.742188 46.703125 M 17.628906 46.816406 C 17.582031 46.863281 17.699219 46.859375 17.703125 46.851562 C 17.753906 46.800781 17.636719 46.808594 17.628906 46.816406 M 32.109375 46.777344 C 32.25 46.855469 32.28125 46.859375 32.445312 46.890625 C 32.304688 46.8125 32.273438 46.804688 32.109375 46.777344 M 17.964844 46.925781 C 17.914062 46.976562 18.03125 46.96875 18.035156 46.964844 C 18.085938 46.914062 17.96875 46.917969 17.964844 46.925781 M 31.851562 46.925781 C 31.800781 46.976562 31.917969 46.96875 31.925781 46.964844 C 31.976562 46.914062 31.859375 46.917969 31.851562 46.925781 M 18.332031 47 C 18.472656 47.074219 18.503906 47.082031 18.667969 47.109375 C 18.527344 47.035156 18.496094 47.027344 18.332031 47 M 31.332031 47 C 31.472656 47.074219 31.503906 47.082031 31.667969 47.109375 C 31.527344 47.035156 31.496094 47.027344 31.332031 47 M 18.851562 47.148438 C 18.800781 47.199219 18.917969 47.191406 18.925781 47.183594 C 18.976562 47.136719 18.859375 47.140625 18.851562 47.148438 M 31.074219 47.148438 C 31.023438 47.199219 31.140625 47.191406 31.148438 47.183594 C 31.199219 47.136719 31.082031 47.140625 31.074219 47.148438 M 19.183594 47.257812 C 19.136719 47.308594 19.253906 47.300781 19.257812 47.296875 C 19.308594 47.246094 19.191406 47.253906 19.183594 47.257812 M 30.554688 47.222656 C 30.695312 47.296875 30.726562 47.304688 30.890625 47.332031 C 30.75 47.257812 30.71875 47.25 30.554688 47.222656 M 19.628906 47.371094 C 19.582031 47.417969 19.699219 47.414062 19.703125 47.40625 C 19.753906 47.359375 19.636719 47.363281 19.628906 47.371094 M 30.109375 47.332031 C 30.25 47.410156 30.28125 47.417969 30.445312 47.445312 C 30.304688 47.367188 30.273438 47.359375 30.109375 47.332031 M 19.964844 47.480469 C 19.914062 47.53125 20.03125 47.523438 20.035156 47.519531 C 20.085938 47.46875 19.96875 47.476562 19.964844 47.480469 M 29.851562 47.480469 C 29.800781 47.53125 29.917969 47.523438 29.925781 47.519531 C 29.976562 47.46875 29.859375 47.476562 29.851562 47.480469 M 20.332031 47.554688 C 20.472656 47.632812 20.503906 47.640625 20.667969 47.667969 C 20.527344 47.589844 20.496094 47.582031 20.332031 47.554688 M 29.332031 47.554688 C 29.472656 47.632812 29.503906 47.640625 29.667969 47.667969 C 29.527344 47.589844 29.496094 47.582031 29.332031 47.554688 M 20.851562 47.703125 C 20.800781 47.753906 20.917969 47.746094 20.925781 47.742188 C 20.976562 47.691406 20.859375 47.699219 20.851562 47.703125 M 29.074219 47.703125 C 29.023438 47.753906 29.140625 47.746094 29.148438 47.742188 C 29.199219 47.691406 29.082031 47.699219 29.074219 47.703125 M 21.183594 47.816406 C 21.136719 47.863281 21.253906 47.859375 21.257812 47.851562 C 21.308594 47.800781 21.191406 47.808594 21.183594 47.816406 M 28.628906 47.816406 C 28.582031 47.863281 28.699219 47.859375 28.703125 47.851562 C 28.753906 47.800781 28.636719 47.808594 28.628906 47.816406 M 21.628906 47.925781 C 21.582031 47.976562 21.699219 47.96875 21.703125 47.964844 C 21.753906 47.914062 21.636719 47.917969 21.628906 47.925781 M 28.296875 47.925781 C 28.246094 47.976562 28.363281 47.96875 28.371094 47.964844 C 28.417969 47.914062 28.300781 47.917969 28.296875 47.925781 M 21.964844 48.035156 C 21.914062 48.085938 22.03125 48.082031 22.035156 48.074219 C 22.085938 48.023438 21.96875 48.03125 21.964844 48.035156 M 27.851562 48.035156 C 27.800781 48.085938 27.917969 48.082031 27.925781 48.074219 C 27.976562 48.023438 27.859375 48.03125 27.851562 48.035156 M 22.332031 48.109375 C 22.472656 48.1875 22.503906 48.195312 22.667969 48.222656 C 22.527344 48.144531 22.496094 48.140625 22.332031 48.109375 M 27.332031 48.109375 C 27.472656 48.1875 27.503906 48.195312 27.667969 48.222656 C 27.527344 48.144531 27.496094 48.140625 27.332031 48.109375 M 22.851562 48.257812 C 22.800781 48.308594 22.917969 48.300781 22.925781 48.296875 C 22.976562 48.246094 22.859375 48.253906 22.851562 48.257812 M 27.074219 48.257812 C 27.023438 48.308594 27.140625 48.300781 27.148438 48.296875 C 27.199219 48.246094 27.082031 48.253906 27.074219 48.257812 M 23.109375 48.332031 C 23.25 48.410156 23.28125 48.417969 23.445312 48.445312 C 23.304688 48.367188 23.273438 48.359375 23.109375 48.332031 M 26.628906 48.371094 C 26.582031 48.417969 26.699219 48.414062 26.703125 48.40625 C 26.753906 48.359375 26.636719 48.363281 26.628906 48.371094 M 23.554688 48.445312 L 23.667969 48.554688 L 23.554688 48.445312 M 26.296875 48.480469 C 26.246094 48.53125 26.363281 48.523438 26.371094 48.519531 C 26.417969 48.46875 26.300781 48.476562 26.296875 48.480469 M 23.964844 48.59375 C 23.914062 48.640625 24.03125 48.636719 24.035156 48.628906 C 24.085938 48.582031 23.96875 48.585938 23.964844 48.59375 M 25.851562 48.59375 C 25.800781 48.640625 25.917969 48.636719 25.925781 48.628906 C 25.976562 48.582031 25.859375 48.585938 25.851562 48.59375 M 24.332031 48.667969 L 24.445312 48.777344 L 24.332031 48.667969 M 25.519531 48.703125 C 25.46875 48.753906 25.585938 48.746094 25.59375 48.742188 C 25.640625 48.691406 25.523438 48.699219 25.519531 48.703125 M 24.777344 48.777344 C 24.945312 48.855469 25.035156 48.871094 25.222656 48.890625 C 25.054688 48.8125 24.964844 48.796875 24.777344 48.777344 Z M 24.777344 48.777344 "/>
</g>
</svg>
