<?xml version="1.0" encoding="UTF-8"?>
<svg xmlns="http://www.w3.org/2000/svg" xmlns:xlink="http://www.w3.org/1999/xlink" width="95pt" height="50pt" viewBox="0 0 95 50" version="1.1">
<g id="surface1">
<rect x="0" y="0" width="95" height="50" style="fill:rgb(100%,100%,100%);fill-opacity:1;stroke:none;"/>
<path style=" stroke:none;fill-rule:nonzero;fill:rgb(23,37,42);fill-opacity:1;" d="M 43.699219 1.835938 C 41.148438 2.171875 38.546875 2.195312 35.980469 2.535156 C 31.585938 3.113281 27.242188 4.132812 23.039062 5.539062 C 17.027344 7.546875 10.863281 10.707031 6.6875 15.59375 C 3.226562 19.644531 1.796875 25.246094 4.066406 30.238281 C 4.769531 31.785156 5.65625 33.246094 6.789062 34.523438 C 8.515625 36.472656 10.519531 38.148438 12.707031 39.558594 C 18.980469 43.609375 26.300781 45.847656 33.605469 47.074219 C 41.652344 48.429688 49.972656 48.652344 58.070312 47.585938 C 63.480469 46.871094 68.886719 45.722656 73.980469 43.714844 C 77.390625 42.371094 80.753906 40.769531 83.71875 38.585938 C 85.695312 37.128906 87.617188 35.449219 89.070312 33.453125 C 89.980469 32.207031 90.765625 30.867188 91.277344 29.40625 C 91.667969 28.285156 91.898438 27.132812 92.011719 25.953125 C 92.597656 19.765625 88.183594 14.609375 83.480469 11.242188 C 75.164062 5.28125 64.722656 3.074219 54.742188 2.121094 C 52.207031 1.878906 49.695312 1.785156 47.144531 1.785156 C 46.011719 1.785156 44.824219 1.6875 43.699219 1.835938 Z M 43.699219 1.835938 "/>
<path style=" stroke:none;fill-rule:nonzero;fill:rgb(100%,100%,100%);fill-opacity:1;" d="M 42.632812 7.617188 C 42.546875 9.597656 41.882812 11.632812 41.496094 13.570312 C 40.578125 18.167969 39.65625 22.773438 38.800781 27.382812 C 38.496094 29.015625 37.914062 30.714844 37.882812 32.382812 L 41.917969 32.382812 C 42.34375 32.382812 43.152344 32.535156 43.511719 32.257812 C 43.773438 32.058594 43.777344 31.605469 43.828125 31.308594 C 43.96875 30.519531 44.101562 29.710938 44.28125 28.929688 C 44.804688 26.644531 45.253906 24.328125 45.671875 22.023438 C 45.878906 20.878906 46.21875 19.734375 46.3125 18.570312 L 50.46875 18.570312 C 51.109375 18.574219 51.945312 18.554688 52.460938 18.996094 C 53.375 19.773438 52.648438 21.515625 52.476562 22.5 C 52.121094 24.566406 51.71875 26.632812 51.324219 28.691406 C 51.089844 29.898438 50.730469 31.144531 50.707031 32.382812 L 56.761719 32.382812 C 57.222656 28.71875 57.972656 25.070312 58.578125 21.429688 C 58.90625 19.453125 59.445312 17.515625 57.894531 15.867188 C 57.03125 14.953125 55.71875 14.460938 54.507812 14.234375 C 52.167969 13.800781 49.640625 14.046875 47.261719 14.046875 C 47.476562 11.894531 48.355469 9.792969 48.449219 7.617188 L 42.632812 7.617188 M 15.554688 38.691406 L 19.59375 38.691406 C 20.015625 38.691406 20.832031 38.84375 21.183594 38.566406 C 21.535156 38.292969 21.507812 37.429688 21.597656 37.023438 C 21.925781 35.523438 22.320312 33.914062 22.445312 32.382812 C 25.789062 32.382812 29.378906 32.804688 32.539062 31.472656 C 36.574219 29.773438 38.949219 25.464844 38.949219 21.191406 C 38.949219 19.023438 38.445312 17.054688 36.691406 15.632812 C 33.953125 13.410156 29.746094 14.046875 26.480469 14.046875 L 22.207031 14.046875 C 21.742188 14.046875 20.882812 13.886719 20.484375 14.171875 C 20.09375 14.453125 20.0625 15.390625 19.980469 15.832031 C 19.714844 17.261719 19.445312 18.699219 19.132812 20.117188 C 18.320312 23.832031 17.671875 27.582031 16.929688 31.308594 C 16.644531 32.738281 16.382812 34.167969 16.097656 35.59375 C 15.890625 36.621094 15.601562 37.640625 15.554688 38.691406 M 61.15625 14.046875 C 61.09375 15.480469 60.582031 16.921875 60.335938 18.332031 C 59.53125 22.910156 58.570312 27.464844 57.660156 32.023438 C 57.34375 33.609375 57.03125 35.195312 56.753906 36.785156 C 56.640625 37.425781 56.433594 38.035156 56.40625 38.691406 L 62.226562 38.691406 C 62.390625 36.5625 63.125 34.511719 63.292969 32.382812 C 67.160156 32.382812 71.234375 32.878906 74.695312 30.796875 C 78.066406 28.769531 79.800781 24.910156 79.800781 21.070312 C 79.800781 19.097656 79.375 17.113281 77.777344 15.792969 C 75.652344 14.042969 73.015625 14.046875 70.417969 14.046875 Z M 61.15625 14.046875 "/>
<path style=" stroke:none;fill-rule:nonzero;fill:rgb(23,37,42);fill-opacity:1;" d="M 25.175781 18.570312 C 25.042969 21.652344 23.882812 24.660156 23.75 27.738281 C 25.679688 27.738281 27.796875 27.953125 29.449219 27.261719 C 29.714844 27.152344 30.03125 27.167969 30.28125 27.023438 C 30.976562 26.617188 31.6875 25.796875 32.0625 25.117188 C 32.15625 24.953125 31.9375 24.851562 31.945312 24.761719 C 31.972656 24.433594 32.175781 24.492188 32.300781 24.523438 C 32.53125 23.167969 33.195312 21.738281 32.703125 20.355469 C 32.382812 19.460938 31.515625 18.972656 30.636719 18.75 C 28.917969 18.320312 26.9375 18.570312 25.175781 18.570312 M 64.601562 27.738281 C 67.445312 27.738281 71.199219 28.210938 72.804688 25.238281 C 73.179688 24.542969 73.386719 23.746094 73.546875 22.976562 C 73.742188 22.027344 73.914062 20.875 73.386719 20 C 72.335938 18.25 69.769531 18.570312 68.042969 18.570312 C 67.574219 18.570312 66.480469 18.371094 66.140625 18.761719 C 65.714844 19.261719 65.746094 20.554688 65.640625 21.191406 C 65.28125 23.332031 64.691406 25.566406 64.601562 27.738281 Z M 64.601562 27.738281 "/>
<path style=" stroke:none;fill-rule:nonzero;fill:rgb(100%,100%,100%);fill-opacity:1;" d="M 32.0625 24.40625 L 31.945312 24.882812 C 32.097656 24.683594 32.128906 24.644531 32.0625 24.40625 Z M 32.0625 24.40625 "/>
</g>
</svg>
