<?xml version="1.0" encoding="UTF-8"?>
<svg xmlns="http://www.w3.org/2000/svg" xmlns:xlink="http://www.w3.org/1999/xlink" width="400pt" height="400pt" viewBox="0 0 400 400" version="1.1">
<g id="surface1">
<path style=" stroke:none;fill-rule:nonzero;fill:rgb(100%,100%,100%);fill-opacity:1;" d="M 0 0 L 0 184.585938 C 0.863281 182.535156 0.597656 179.617188 0.863281 177.378906 C 1.503906 172.035156 2.140625 166.644531 3.210938 161.363281 C 6.433594 145.480469 11.398438 130.046875 18.179688 115.316406 C 40.3125 67.207031 82.320312 29.320312 131.996094 11.191406 C 142.789062 7.25 153.960938 4.183594 165.296875 2.289062 C 170.304688 1.453125 175.441406 0.402344 180.542969 0.402344 C 178.851562 -0.308594 176.746094 0 174.925781 0 Z M 0 0 "/>
<path style=" stroke:none;fill-rule:nonzero;fill:rgb(84.705882%,26.27451%,8.235294%);fill-opacity:1;" d="M 191.375 399.199219 C 189.078125 399.875 186.535156 399.597656 184.152344 399.597656 L 0 399.597656 C 2.871094 400.800781 7.324219 400 10.429688 400 L 400 400 C 398.308594 399.292969 396.203125 399.597656 394.382812 399.597656 L 206.21875 399.597656 C 208.550781 398.910156 211.03125 399.289062 213.441406 399.183594 C 216.761719 399.039062 220.167969 398.679688 223.46875 398.285156 C 236.101562 396.773438 248.628906 394.148438 260.78125 390.378906 C 313.757812 373.949219 359.074219 334.195312 382.222656 283.882812 C 391.769531 263.132812 397.765625 240.941406 399.933594 218.21875 C 400.507812 212.179688 400 205.863281 400 199.800781 C 400 193.339844 400.546875 186.609375 399.933594 180.179688 C 396.554688 144.769531 383.578125 110.472656 362.628906 81.683594 C 348.449219 62.199219 330.636719 45.328125 310.53125 32.035156 C 287.582031 16.859375 261.6875 7.125 234.703125 2.105469 C 223.488281 0.0195312 212.363281 0 201.003906 0 C 188.09375 0 175.617188 0.207031 162.886719 2.585938 C 137.882812 7.265625 113.679688 16.824219 92.277344 30.554688 C 63.15625 49.238281 39.457031 74.921875 22.992188 105.304688 C -16.613281 178.386719 -4.605469 273.878906 52.191406 334.734375 C 70.652344 354.511719 92.527344 370.453125 117.152344 381.707031 C 140.03125 392.160156 166.09375 399.199219 191.375 399.199219 Z M 191.375 399.199219 "/>
<path style=" stroke:none;fill-rule:nonzero;fill:rgb(99.607843%,99.607843%,99.607843%);fill-opacity:1;" d="M 219.457031 0 C 222.152344 1.128906 226.144531 0.90625 229.085938 1.261719 C 233.515625 1.800781 237.964844 2.765625 242.328125 3.6875 C 256.839844 6.753906 270.980469 11.566406 284.453125 17.742188 C 332.222656 39.632812 370.070312 81.097656 388.386719 130.128906 C 392.582031 141.359375 395.921875 153.113281 397.761719 164.964844 C 398.5 169.710938 399.558594 174.566406 399.597656 179.378906 C 400.308594 177.691406 400 175.589844 400 173.773438 L 400 0 L 219.457031 0 M 129.589844 152.320312 C 123.625 153.101562 117.535156 153.0625 111.535156 153.871094 C 102.742188 155.050781 93.984375 157.625 85.457031 159.992188 C 82.558594 160.792969 79.601562 161.507812 76.628906 161.988281 C 74.648438 162.304688 72.652344 162.320312 71.449219 164.207031 C 69.40625 167.410156 69.433594 174.300781 71.675781 177.363281 C 72.859375 178.976562 74.746094 179.847656 75.972656 181.417969 C 77.953125 183.941406 79.296875 187.195312 80.363281 190.191406 C 83.445312 198.820312 83.847656 208.105469 87.304688 216.617188 C 94.871094 235.265625 111.742188 245.761719 131.59375 246.632812 C 153.828125 247.601562 172.605469 233.300781 183.667969 215.015625 C 187.804688 208.175781 189.386719 200.117188 193.566406 193.394531 C 195.179688 190.800781 198.007812 187.644531 201.402344 188.570312 C 204.6875 189.46875 206.707031 192.96875 208.125 195.796875 C 211.582031 202.695312 213.523438 210.023438 217.730469 216.617188 C 227.148438 231.378906 241.695312 243.785156 259.578125 246.128906 C 265.328125 246.886719 271.109375 246.5625 276.832031 245.675781 C 293.644531 243.074219 307.628906 231.839844 313.460938 215.816406 C 316.550781 207.332031 316.976562 198.234375 320.1875 189.789062 C 321.265625 186.953125 322.53125 183.820312 324.425781 181.417969 C 325.457031 180.113281 326.980469 179.359375 328.097656 178.140625 C 330.105469 175.960938 330.195312 173.363281 330.191406 170.570312 C 330.1875 167.90625 330.054688 164.175781 327.363281 162.746094 C 325.648438 161.832031 323.253906 162.007812 321.363281 161.59375 C 317.324219 160.703125 313.320312 159.574219 309.328125 158.5 C 286.921875 152.449219 263.683594 150.191406 240.722656 154.324219 C 233.628906 155.601562 227.167969 158.257812 220.261719 160.097656 C 212.890625 162.058594 205.410156 163 197.792969 162.960938 C 187.488281 162.914062 178.234375 159.027344 168.503906 156.324219 C 159.8125 153.914062 150.996094 152.929688 142.027344 152.535156 C 137.890625 152.355469 133.738281 151.777344 129.589844 152.320312 Z M 129.589844 152.320312 "/>
<path style=" stroke:none;fill-rule:nonzero;fill:rgb(84.705882%,26.27451%,8.235294%);fill-opacity:1;" d="M 122.769531 161.128906 C 114.632812 162.199219 106.097656 163.414062 99.914062 169.40625 C 94.578125 174.578125 92.515625 182.21875 91.84375 189.390625 C 90.621094 202.53125 92.796875 216.867188 101.972656 227.027344 C 111.449219 237.515625 126.863281 240.757812 140.421875 238.976562 C 156.015625 236.925781 168.902344 224.257812 176.609375 211.410156 C 179.503906 206.585938 181.972656 201.335938 183.109375 195.796875 C 184.703125 188.019531 184.515625 177.386719 179.207031 170.972656 C 176.09375 167.210938 171.847656 165.347656 167.300781 163.902344 C 157.457031 160.765625 146.621094 160.960938 136.410156 160.960938 C 131.929688 160.960938 127.214844 160.546875 122.769531 161.128906 M 251.152344 161.128906 C 241.648438 162.375 230.050781 162.195312 222.675781 169.386719 C 214.121094 177.722656 215.566406 192.898438 219.617188 203.003906 C 226.28125 219.625 240.964844 235.425781 259.175781 238.855469 C 264.074219 239.777344 269.105469 239.550781 274.023438 238.925781 C 278.113281 238.402344 282.289062 237.40625 286.058594 235.710938 C 303.976562 227.65625 310.574219 208.261719 308.59375 189.789062 C 307.835938 182.734375 306.1875 175.578125 301.234375 170.175781 C 292.28125 160.414062 276.902344 160.960938 264.792969 160.960938 C 260.3125 160.960938 255.597656 160.546875 251.152344 161.128906 Z M 251.152344 161.128906 "/>
<path style=" stroke:none;fill-rule:nonzero;fill:rgb(99.607843%,99.607843%,99.607843%);fill-opacity:1;" d="M 238.714844 219.417969 C 240.585938 219.417969 244.507812 220.167969 246.058594 219.007812 C 247.050781 218.265625 247.277344 216.527344 247.597656 215.414062 C 248.378906 212.71875 249.328125 210.070312 250.21875 207.40625 C 253.859375 196.507812 257.277344 185.519531 260.78125 174.574219 C 258.910156 174.574219 254.988281 173.828125 253.441406 174.984375 C 252.542969 175.660156 252.289062 177.175781 251.957031 178.179688 C 251.023438 180.96875 250.210938 183.796875 249.28125 186.585938 C 245.6875 197.363281 241.28125 208.359375 238.714844 219.417969 M 147.644531 178.578125 C 140.171875 183.902344 131.535156 188.089844 123.570312 192.652344 C 120.285156 194.535156 116.445312 196.171875 113.539062 198.597656 C 121.09375 203.585938 129.277344 207.976562 137.210938 212.335938 C 140.734375 214.269531 144.195312 217.003906 148.042969 218.21875 C 149.355469 215.265625 150.253906 212.082031 151.253906 209.007812 C 147.5625 206.753906 143.785156 204.625 140.019531 202.488281 C 137.8125 201.238281 135.644531 199.71875 133.199219 199 L 133.199219 198.199219 C 135.621094 197.433594 137.820312 195.914062 140.019531 194.65625 C 143.765625 192.507812 147.53125 190.378906 151.253906 188.1875 C 150.300781 185.261719 149.667969 180.890625 147.644531 178.578125 M 265.195312 178.578125 C 264.710938 181.84375 263.410156 185.054688 262.386719 188.1875 C 266.109375 190.378906 269.867188 192.515625 273.621094 194.65625 C 275.835938 195.917969 277.984375 197.476562 280.441406 198.199219 C 275.128906 202.558594 268.257812 205.421875 262.386719 209.007812 C 263.378906 212.050781 264.472656 215.097656 265.195312 218.21875 C 269 217.484375 272.6875 214.457031 276.027344 212.550781 C 283.917969 208.058594 291.660156 203.222656 299.699219 199 L 299.699219 198.199219 C 292.125 193.738281 284.46875 189.398438 276.832031 185.046875 C 273.0625 182.898438 269.273438 180.066406 265.195312 178.578125 M 0 214.613281 L 0 399.597656 L 191.375 399.597656 C 188.589844 398.433594 184.382812 399.019531 181.34375 398.730469 C 175.3125 398.15625 169.246094 397.324219 163.289062 396.210938 C 146.625 393.097656 130.535156 387.707031 115.144531 380.65625 C 66.9375 358.566406 29.371094 316.140625 11.253906 266.667969 C 7.089844 255.292969 4.183594 243.363281 2.179688 231.429688 C 1.625 228.132812 1.105469 224.753906 0.835938 221.421875 C 0.664062 219.296875 0.820312 216.566406 0 214.613281 M 399.597656 219.019531 C 399.59375 227.164062 397.578125 235.535156 395.785156 243.445312 C 392.851562 256.390625 388.742188 268.96875 383.273438 281.082031 C 352.597656 348.988281 281.914062 399.199219 206.21875 399.199219 C 207.910156 399.90625 210.015625 399.597656 211.835938 399.597656 L 400 399.597656 L 400 224.625 C 400 222.808594 400.308594 220.707031 399.597656 219.019531 Z M 399.597656 219.019531 "/>
</g>
</svg>
