<?xml version="1.0" encoding="UTF-8"?>
<svg xmlns="http://www.w3.org/2000/svg" xmlns:xlink="http://www.w3.org/1999/xlink" width="50pt" height="50pt" viewBox="0 0 50 50" version="1.1">
<g id="surface1">
<rect x="0" y="0" width="50" height="50" style="fill:rgb(100%,100%,100%);fill-opacity:1;stroke:none;"/>
<path style=" stroke:none;fill-rule:nonzero;fill:rgb(23,37,42);fill-opacity:1;" d="M 17.492188 16.453125 L 24.441406 16.453125 C 24.921875 16.453125 25.398438 16.449219 25.878906 16.453125 C 26.070312 16.453125 26.320312 16.433594 26.46875 16.582031 C 26.636719 16.746094 26.597656 17.039062 26.597656 17.253906 C 23.109375 17.253906 19.617188 17.246094 16.132812 17.332031 C 14.449219 17.371094 12.585938 17.019531 11.101562 18.019531 C 9.492188 19.101562 8.875 21.09375 8.691406 22.921875 C 8.324219 26.613281 9.890625 31.019531 13.816406 32.097656 C 14.28125 32.222656 14.773438 32.328125 15.253906 32.34375 C 15.414062 32.351562 15.632812 32.371094 15.765625 32.265625 C 15.945312 32.125 15.933594 31.753906 15.964844 31.550781 C 16.050781 30.933594 16.152344 30.328125 16.238281 29.710938 C 16.476562 27.945312 17.007812 26.046875 18.691406 25.144531 C 20.132812 24.371094 21.902344 24.40625 23.484375 24.511719 C 24.671875 24.59375 25.882812 24.601562 27.078125 24.601562 C 28.320312 24.601562 30.136719 24.488281 31.003906 23.476562 C 31.875 22.457031 32.0625 21.066406 32.339844 19.808594 C 32.570312 18.753906 32.597656 17.53125 32.585938 16.453125 C 32.574219 15.09375 32.511719 13.484375 31.945312 12.21875 C 31.335938 10.855469 30.058594 10.230469 28.675781 9.875 C 26.25 9.25 23.582031 9.453125 21.167969 10.011719 C 20.359375 10.199219 19.59375 10.484375 18.851562 10.839844 C 18.535156 10.988281 18.175781 11.144531 17.933594 11.402344 C 17.574219 11.785156 17.578125 12.609375 17.570312 13.097656 C 17.558594 14.214844 17.492188 15.332031 17.492188 16.453125 Z M 17.492188 16.453125 "/>
<path style=" stroke:none;fill-rule:nonzero;fill:rgb(100%,100%,100%);fill-opacity:1;" d="M 20.367188 11.550781 C 20.113281 11.625 19.855469 11.765625 19.648438 11.933594 C 18.085938 13.203125 19.507812 15.742188 21.40625 15.191406 C 23.734375 14.519531 22.683594 10.894531 20.367188 11.550781 Z M 20.367188 11.550781 "/>
<path style=" stroke:none;fill-rule:nonzero;fill:rgb(23,37,42);fill-opacity:1;" d="M 33.785156 17.652344 C 33.785156 18.6875 33.625 19.75 33.433594 20.765625 C 33.15625 22.261719 32.792969 23.699219 31.46875 24.617188 C 30.539062 25.265625 29.453125 25.410156 28.355469 25.488281 C 26.492188 25.613281 24.632812 25.398438 22.761719 25.398438 C 21.546875 25.398438 19.804688 25.46875 18.886719 26.382812 C 18.324219 26.941406 18.042969 27.773438 17.8125 28.515625 C 17.503906 29.511719 17.363281 30.589844 17.265625 31.628906 C 17.121094 33.152344 17.203125 34.757812 17.457031 36.261719 C 17.609375 37.175781 17.835938 38.085938 18.492188 38.78125 C 19.238281 39.574219 20.300781 39.910156 21.324219 40.164062 C 23.714844 40.761719 26.300781 40.503906 28.675781 39.96875 C 29.476562 39.789062 30.253906 39.507812 30.992188 39.144531 C 31.3125 38.988281 31.75 38.789062 31.949219 38.472656 C 32.175781 38.109375 32.15625 37.476562 32.195312 37.0625 C 32.304688 35.894531 32.269531 34.71875 32.269531 33.546875 L 23.242188 33.546875 L 23.242188 32.746094 C 26.890625 32.746094 30.546875 32.667969 34.183594 32.667969 C 35.808594 32.667969 37.800781 32.996094 39.136719 31.851562 C 40.5 30.6875 41.136719 28.898438 41.300781 27.15625 C 41.546875 24.519531 41.046875 21.703125 39.132812 19.730469 C 37.710938 18.257812 35.789062 17.652344 33.785156 17.652344 Z M 33.785156 17.652344 "/>
<path style=" stroke:none;fill-rule:nonzero;fill:rgb(100%,100%,100%);fill-opacity:1;" d="M 28.113281 34.472656 C 26.355469 34.925781 26.28125 37.585938 28.035156 38.113281 C 28.382812 38.21875 28.804688 38.199219 29.152344 38.105469 C 31.453125 37.472656 30.410156 33.882812 28.113281 34.472656 Z M 28.113281 34.472656 "/>
</g>
</svg>
