<?xml version="1.0" encoding="UTF-8"?>
<svg xmlns="http://www.w3.org/2000/svg" xmlns:xlink="http://www.w3.org/1999/xlink" width="59pt" height="59pt" viewBox="0 0 59 59" version="1.1">
<g id="surface1">
<rect x="0" y="0" width="59" height="59" style="fill:rgb(100%,100%,99.607843%);fill-opacity:1;stroke:none;"/>
<path style=" stroke:none;fill-rule:nonzero;fill:rgb(23,37,42);fill-opacity:1;" d="M 15.261719 15.175781 C 14.644531 15.257812 14.015625 15.242188 13.398438 15.300781 C 12.152344 15.421875 10.90625 15.597656 9.675781 15.828125 C 9 15.953125 7.917969 16.136719 7.542969 16.792969 C 7.375 17.085938 7.449219 17.511719 7.449219 17.835938 L 7.449219 21.738281 C 7.449219 21.996094 7.398438 22.316406 7.496094 22.554688 C 7.585938 22.785156 7.800781 22.976562 7.992188 23.121094 C 8.996094 23.878906 10.46875 24.074219 11.671875 24.269531 C 12.488281 24.402344 13.304688 24.457031 14.125 24.511719 C 16.546875 24.675781 18.984375 24.636719 21.394531 24.3125 C 22.5 24.164062 23.625 23.953125 24.664062 23.527344 C 25.117188 23.34375 25.652344 23.066406 25.871094 22.601562 C 26.039062 22.246094 25.980469 21.804688 25.980469 21.421875 L 25.980469 17.472656 C 25.980469 17.132812 25.980469 16.78125 25.703125 16.535156 C 25.445312 16.300781 25.082031 16.191406 24.753906 16.09375 C 24.085938 15.886719 23.398438 15.75 22.710938 15.652344 C 20.824219 15.378906 18.941406 15.160156 17.03125 15.160156 C 16.453125 15.160156 15.835938 15.101562 15.261719 15.175781 Z M 15.261719 15.175781 "/>
<path style=" stroke:none;fill-rule:nonzero;fill:rgb(100%,100%,99.607843%);fill-opacity:1;" d="M 14.671875 15.722656 C 14.117188 15.792969 13.546875 15.761719 12.988281 15.796875 C 11.914062 15.871094 10.824219 15.996094 9.765625 16.203125 C 9.390625 16.273438 8.964844 16.351562 8.628906 16.542969 C 8.511719 16.613281 8.34375 16.726562 8.347656 16.882812 C 8.355469 17.21875 8.96875 17.351562 9.21875 17.410156 C 10.199219 17.640625 11.175781 17.75 12.171875 17.867188 C 13.125 17.980469 14.078125 17.976562 15.035156 18.019531 C 17.007812 18.105469 19.015625 18.085938 20.984375 17.890625 C 21.835938 17.804688 22.6875 17.730469 23.527344 17.5625 C 23.949219 17.480469 24.417969 17.394531 24.800781 17.1875 C 25.253906 16.9375 24.980469 16.625 24.617188 16.476562 C 23.992188 16.21875 23.285156 16.121094 22.617188 16.035156 C 20.761719 15.789062 18.902344 15.703125 17.03125 15.703125 C 16.261719 15.703125 15.4375 15.621094 14.671875 15.722656 M 25.617188 17.109375 L 25.480469 17.292969 C 25.558594 17.230469 25.597656 17.207031 25.617188 17.109375 M 8.402344 17.246094 L 8.449219 17.292969 L 8.402344 17.246094 M 25.253906 17.472656 L 25.117188 17.65625 C 25.195312 17.59375 25.230469 17.570312 25.253906 17.472656 M 24.890625 17.835938 L 24.753906 18.019531 C 24.832031 17.957031 24.867188 17.933594 24.890625 17.835938 M 8.5 19.914062 C 8.191406 20.03125 8.355469 20.527344 8.671875 20.429688 C 9.035156 20.320312 8.839844 19.785156 8.5 19.914062 Z M 8.5 19.914062 "/>
<path style=" stroke:none;fill-rule:nonzero;fill:rgb(23,37,42);fill-opacity:1;" d="M 30.976562 32.40625 L 28.023438 32.40625 C 28.023438 33.960938 27.78125 35.972656 28.9375 37.214844 C 29.542969 37.867188 30.394531 38.09375 31.25 38.175781 C 32.316406 38.28125 33.5 38.175781 34.335938 37.429688 C 34.835938 36.976562 35.101562 36.265625 35.261719 35.625 C 35.753906 33.644531 35.484375 31.523438 34.0625 30 C 33.410156 29.300781 32.695312 28.675781 32.019531 28.003906 C 31.640625 27.625 31.210938 27.246094 31.019531 26.730469 C 30.929688 26.488281 30.875 26.15625 30.996094 25.914062 C 31.1875 25.53125 31.730469 25.398438 32.050781 25.707031 C 32.398438 26.035156 32.246094 26.796875 32.246094 27.230469 L 35.382812 27.230469 C 35.382812 25.921875 35.199219 24.324219 34.109375 23.441406 C 33.382812 22.847656 32.425781 22.738281 31.519531 22.738281 C 30.824219 22.738281 30.128906 22.8125 29.523438 23.195312 C 28.789062 23.660156 28.355469 24.40625 28.15625 25.234375 C 27.90625 26.253906 27.929688 27.492188 28.378906 28.457031 C 28.6875 29.125 29.195312 29.703125 29.710938 30.21875 C 30.089844 30.597656 30.464844 30.976562 30.847656 31.347656 C 31.40625 31.886719 32.003906 32.421875 32.269531 33.175781 C 32.449219 33.695312 32.558594 34.464844 32.351562 34.992188 C 32.171875 35.449219 31.578125 35.523438 31.257812 35.171875 C 31.050781 34.941406 31.046875 34.644531 31.015625 34.355469 C 30.945312 33.710938 30.976562 33.054688 30.976562 32.40625 M 43.238281 39.667969 C 43.417969 39.253906 43.679688 38.875 43.902344 38.484375 C 43.984375 38.339844 44.160156 38.117188 44.160156 37.941406 C 44.160156 37.789062 43.988281 37.703125 43.875 37.632812 C 43.574219 37.441406 43.261719 37.1875 42.921875 37.078125 C 43.1875 36.640625 43.429688 36.214844 43.570312 35.71875 C 43.882812 34.585938 43.777344 33.359375 43.777344 32.195312 L 43.785156 28.320312 C 43.785156 27.074219 43.898438 25.714844 43.363281 24.554688 C 42.742188 23.207031 41.402344 22.738281 40.015625 22.738281 C 39.390625 22.738281 38.777344 22.800781 38.199219 23.050781 C 37.109375 23.515625 36.566406 24.484375 36.34375 25.597656 C 36.15625 26.539062 36.246094 27.546875 36.246094 28.5 L 36.246094 33.359375 C 36.246094 34.628906 36.257812 35.984375 37.085938 37.035156 C 37.675781 37.785156 38.667969 38.171875 39.605469 38.210938 C 39.816406 38.222656 40.03125 38.21875 40.242188 38.1875 C 40.433594 38.15625 40.644531 38.089844 40.832031 38.160156 C 41.027344 38.234375 41.207031 38.386719 41.378906 38.5 C 41.785156 38.773438 42.191406 39.042969 42.605469 39.304688 C 42.8125 39.4375 43.003906 39.589844 43.238281 39.667969 M 45.191406 22.875 L 45.191406 38.078125 L 51.414062 38.078125 L 51.414062 35.492188 L 48.28125 35.492188 L 48.28125 22.875 L 45.191406 22.875 M 25.617188 24.023438 C 25.5 24.046875 25.394531 24.15625 25.296875 24.21875 C 25.125 24.335938 24.941406 24.429688 24.753906 24.523438 C 24.253906 24.769531 23.660156 24.933594 23.117188 25.050781 C 19.867188 25.769531 16.382812 25.8125 13.082031 25.5 C 11.730469 25.371094 10.3125 25.152344 9.039062 24.671875 C 8.703125 24.542969 8.382812 24.398438 8.085938 24.203125 C 7.96875 24.125 7.828125 24 7.6875 24.085938 C 7.507812 24.195312 7.457031 24.453125 7.449219 24.644531 C 7.4375 25.113281 7.449219 25.582031 7.449219 26.050781 L 7.449219 28.820312 C 7.449219 29.1875 7.355469 29.703125 7.511719 30.042969 C 7.730469 30.523438 8.300781 30.804688 8.765625 30.996094 C 10.347656 31.652344 12.160156 31.839844 13.851562 31.953125 C 16.0625 32.105469 18.28125 32.082031 20.484375 31.867188 C 21.726562 31.746094 22.976562 31.550781 24.164062 31.15625 C 24.738281 30.964844 25.457031 30.714844 25.800781 30.179688 C 26.042969 29.804688 25.980469 29.335938 25.980469 28.910156 L 25.980469 26.367188 C 25.980469 25.765625 26.054688 25.105469 25.960938 24.507812 C 25.933594 24.339844 25.855469 23.972656 25.617188 24.023438 Z M 25.617188 24.023438 "/>
<path style=" stroke:none;fill-rule:nonzero;fill:rgb(100%,100%,99.607843%);fill-opacity:1;" d="M 24.84375 24.734375 C 24.90625 24.8125 24.945312 24.855469 25.027344 24.917969 C 24.964844 24.835938 24.925781 24.796875 24.84375 24.734375 M 25.207031 25.097656 C 25.269531 25.175781 25.308594 25.21875 25.390625 25.277344 C 25.328125 25.199219 25.289062 25.15625 25.207031 25.097656 M 25.570312 25.460938 C 25.632812 25.539062 25.671875 25.582031 25.753906 25.640625 C 25.691406 25.5625 25.652344 25.519531 25.570312 25.460938 M 39.832031 25.535156 C 39.101562 25.757812 39.242188 26.921875 39.242188 27.503906 L 39.242188 33.628906 C 39.242188 34.21875 39.238281 35.644531 40.195312 35.378906 C 40.441406 35.3125 40.554688 35.082031 40.609375 34.855469 C 40.726562 34.394531 40.695312 33.917969 40.695312 33.449219 L 40.695312 27.320312 C 40.695312 26.859375 40.753906 26.351562 40.566406 25.914062 C 40.445312 25.636719 40.140625 25.441406 39.832031 25.535156 M 8.773438 27.765625 C 8.445312 27.898438 8.671875 28.363281 8.992188 28.246094 C 9.324219 28.121094 9.097656 27.628906 8.773438 27.765625 M 28.476562 28.367188 L 28.523438 28.410156 L 28.476562 28.367188 M 28.839844 28.726562 L 28.886719 28.773438 L 28.839844 28.726562 M 29.566406 29.453125 L 29.613281 29.5 Z M 29.566406 29.453125 "/>
<path style=" stroke:none;fill-rule:nonzero;fill:rgb(23,37,42);fill-opacity:1;" d="M 7.8125 31.738281 C 7.652344 31.78125 7.539062 31.988281 7.492188 32.132812 C 7.355469 32.53125 7.449219 33.078125 7.449219 33.492188 L 7.449219 36.445312 C 7.449219 36.835938 7.347656 37.390625 7.496094 37.761719 C 7.628906 38.097656 7.957031 38.347656 8.265625 38.515625 C 9.625 39.269531 11.332031 39.480469 12.855469 39.628906 C 15.230469 39.859375 17.652344 39.898438 20.03125 39.675781 C 21.558594 39.527344 23.132812 39.339844 24.570312 38.777344 C 25.042969 38.589844 25.613281 38.316406 25.863281 37.851562 C 26.0625 37.476562 25.980469 36.945312 25.980469 36.535156 L 25.980469 33.765625 C 25.980469 33.277344 26.03125 32.75 25.953125 32.269531 C 25.921875 32.078125 25.867188 31.816406 25.660156 31.738281 C 25.511719 31.683594 25.371094 31.8125 25.253906 31.886719 C 24.992188 32.050781 24.722656 32.171875 24.4375 32.285156 C 23.40625 32.695312 22.261719 32.898438 21.164062 33.03125 C 18.003906 33.417969 14.78125 33.402344 11.628906 32.9375 C 10.6875 32.796875 9.738281 32.597656 8.855469 32.242188 C 8.625 32.148438 8.386719 32.039062 8.175781 31.902344 C 8.070312 31.835938 7.949219 31.703125 7.8125 31.738281 Z M 7.8125 31.738281 "/>
<path style=" stroke:none;fill-rule:nonzero;fill:rgb(100%,100%,99.607843%);fill-opacity:1;" d="M 25.570312 33.449219 L 25.617188 33.492188 L 25.570312 33.449219 M 25.480469 33.539062 L 25.527344 33.585938 L 25.480469 33.539062 M 25.207031 33.8125 L 25.253906 33.855469 L 25.207031 33.8125 M 25.117188 33.902344 L 25.164062 33.949219 L 25.117188 33.902344 M 24.84375 34.175781 L 24.890625 34.21875 L 24.84375 34.175781 M 24.753906 34.265625 L 24.800781 34.3125 L 24.753906 34.265625 M 8.773438 35.207031 C 8.453125 35.339844 8.671875 35.84375 8.984375 35.726562 C 9.320312 35.601562 9.117188 35.0625 8.773438 35.207031 Z M 8.773438 35.207031 "/>
</g>
</svg>
